<svg width="398" height="34" viewBox="0 0 398 34" fill="none" xmlns="http://www.w3.org/2000/svg">
<path d="M398 34H329.885L306.196 16.8846H162L157 0H398V34Z" fill="#00374B"/>
<path d="M0 0V17C0 17 98.7564 16.9299 99 17L93.0394 0.00245098L0 0Z" fill="#005D7B"/>
<path d="M99 0L104.719 17H113.614H117.245C117.85 17 118.425 16.9433 119 16.915L113.614 0H99Z" fill="#005D7B"/>
<path d="M119 0L124.433 17H132.884H136.333C136.908 17 137.454 16.9433 138 16.915L132.884 0H119Z" fill="#007691"/>
<path d="M138 0L143.147 17H151.153H154.421C154.965 17 155.483 16.9433 156 16.915L151.153 0H138Z" fill="#028EA5"/>
</svg>
