<svg width="310" height="54" viewBox="0 0 310 54" fill="none" xmlns="http://www.w3.org/2000/svg">
<path d="M24 54L0 0H310V54H24Z" fill="#005D7B"/>
<path d="M124.064 34L123.722 30.76H119.456L117.854 34H115.424L121.958 21.436H124.874L126.368 34H124.064ZM123.056 23.506H122.93L120.374 28.834H123.56L123.056 23.506ZM131.434 20.68H133.612L132.406 26.746H132.496C132.88 25.978 133.306 25.396 133.774 25C134.242 24.592 134.836 24.388 135.556 24.388C135.988 24.388 136.366 24.472 136.69 24.64C137.026 24.808 137.302 25.042 137.518 25.342C137.734 25.63 137.896 25.984 138.004 26.404C138.112 26.812 138.166 27.262 138.166 27.754C138.166 28.666 138.058 29.518 137.842 30.31C137.626 31.09 137.32 31.774 136.924 32.362C136.54 32.938 136.072 33.394 135.52 33.73C134.98 34.054 134.386 34.216 133.738 34.216C133.102 34.216 132.568 34.048 132.136 33.712C131.704 33.376 131.446 32.938 131.362 32.398H131.272L130.948 34H128.77L131.434 20.68ZM133.252 32.398C134.488 32.398 135.262 31.624 135.574 30.076L135.826 28.78C135.85 28.648 135.874 28.486 135.898 28.294C135.922 28.102 135.934 27.934 135.934 27.79C135.934 27.31 135.814 26.926 135.574 26.638C135.346 26.35 135.01 26.206 134.566 26.206C134.218 26.206 133.9 26.296 133.612 26.476C133.336 26.644 133.096 26.848 132.892 27.088C132.652 27.352 132.454 27.658 132.298 28.006C132.142 28.342 132.022 28.702 131.938 29.086L131.614 30.688C131.518 31.168 131.62 31.576 131.92 31.912C132.232 32.236 132.676 32.398 133.252 32.398ZM143.855 34.216C142.751 34.216 141.869 33.88 141.209 33.208C140.549 32.536 140.219 31.57 140.219 30.31C140.219 29.482 140.339 28.708 140.579 27.988C140.819 27.268 141.155 26.644 141.587 26.116C142.019 25.576 142.529 25.156 143.117 24.856C143.705 24.544 144.353 24.388 145.061 24.388C146.165 24.388 147.047 24.724 147.707 25.396C148.367 26.068 148.697 27.034 148.697 28.294C148.697 29.122 148.577 29.896 148.337 30.616C148.097 31.336 147.761 31.966 147.329 32.506C146.897 33.034 146.381 33.454 145.781 33.766C145.193 34.066 144.551 34.216 143.855 34.216ZM143.981 32.416C144.521 32.416 144.977 32.218 145.349 31.822C145.733 31.426 145.997 30.85 146.141 30.094L146.465 28.528C146.489 28.408 146.507 28.306 146.519 28.222C146.531 28.126 146.537 28.012 146.537 27.88C146.537 27.376 146.399 26.968 146.123 26.656C145.859 26.344 145.463 26.188 144.935 26.188C144.395 26.188 143.933 26.386 143.549 26.782C143.177 27.178 142.919 27.754 142.775 28.51L142.451 30.094C142.427 30.19 142.409 30.286 142.397 30.382C142.385 30.478 142.379 30.592 142.379 30.724C142.379 31.228 142.511 31.636 142.775 31.948C143.051 32.26 143.453 32.416 143.981 32.416ZM154.42 24.604L153.286 30.256C153.214 30.604 153.178 30.922 153.178 31.21C153.178 31.57 153.256 31.852 153.412 32.056C153.58 32.26 153.844 32.362 154.204 32.362C154.516 32.362 154.798 32.29 155.05 32.146C155.314 31.99 155.554 31.786 155.77 31.534C156.274 30.958 156.598 30.298 156.742 29.554L157.732 24.604H159.91L158.38 32.218H159.514L159.172 34H157.624C157.192 34 156.838 33.886 156.562 33.658C156.298 33.43 156.166 33.106 156.166 32.686C156.166 32.59 156.172 32.494 156.184 32.398C156.196 32.302 156.208 32.218 156.22 32.146L156.274 31.912H156.166C155.818 32.644 155.41 33.214 154.942 33.622C154.474 34.018 153.892 34.216 153.196 34.216C152.452 34.216 151.888 34 151.504 33.568C151.12 33.136 150.928 32.524 150.928 31.732C150.928 31.516 150.94 31.306 150.964 31.102C150.988 30.886 151.024 30.658 151.072 30.418L152.242 24.604H154.42ZM164.233 34C162.937 34 162.289 33.466 162.289 32.398C162.289 32.302 162.295 32.194 162.307 32.074C162.319 31.942 162.337 31.81 162.361 31.678L163.423 26.386H162.073L162.415 24.604H163.081C163.453 24.604 163.699 24.532 163.819 24.388C163.951 24.232 164.047 23.992 164.107 23.668L164.431 22.03H166.465L165.961 24.604H167.851L167.491 26.386H165.601L164.431 32.218H166.213L165.853 34H164.233ZM178.257 21.436L176.727 29.05C176.679 29.266 176.643 29.47 176.619 29.662C176.595 29.854 176.583 30.04 176.583 30.22C176.583 30.868 176.751 31.36 177.087 31.696C177.435 32.02 177.927 32.182 178.563 32.182C179.391 32.182 180.027 31.936 180.471 31.444C180.927 30.952 181.263 30.166 181.479 29.086L183.009 21.436H185.277L183.747 29.05C183.567 29.962 183.333 30.742 183.045 31.39C182.757 32.038 182.397 32.572 181.965 32.992C181.545 33.412 181.041 33.724 180.453 33.928C179.877 34.12 179.205 34.216 178.437 34.216C177.129 34.216 176.127 33.886 175.431 33.226C174.735 32.554 174.387 31.57 174.387 30.274C174.387 30.034 174.399 29.776 174.423 29.5C174.447 29.224 174.495 28.924 174.567 28.6L175.989 21.436H178.257ZM189.561 34.216C188.805 34.216 188.097 34.078 187.437 33.802C186.789 33.514 186.267 33.094 185.871 32.542L187.257 31.264C187.533 31.636 187.857 31.924 188.229 32.128C188.613 32.332 189.075 32.434 189.615 32.434C190.203 32.434 190.641 32.314 190.929 32.074C191.229 31.834 191.379 31.54 191.379 31.192C191.379 30.964 191.307 30.766 191.163 30.598C191.019 30.43 190.749 30.316 190.353 30.256L189.471 30.13C188.691 30.01 188.079 29.752 187.635 29.356C187.191 28.96 186.969 28.384 186.969 27.628C186.969 27.196 187.041 26.788 187.185 26.404C187.341 26.008 187.575 25.666 187.887 25.378C188.199 25.078 188.589 24.838 189.057 24.658C189.537 24.478 190.095 24.388 190.731 24.388C192.195 24.388 193.323 24.874 194.115 25.846L192.711 27.124C192.483 26.836 192.189 26.608 191.829 26.44C191.481 26.26 191.079 26.17 190.623 26.17C190.119 26.17 189.735 26.278 189.471 26.494C189.219 26.698 189.093 26.974 189.093 27.322C189.093 27.55 189.165 27.748 189.309 27.916C189.453 28.084 189.717 28.198 190.101 28.258L190.983 28.384C191.775 28.504 192.393 28.762 192.837 29.158C193.281 29.554 193.503 30.13 193.503 30.886C193.503 31.342 193.413 31.774 193.233 32.182C193.065 32.59 192.813 32.944 192.477 33.244C192.141 33.544 191.727 33.784 191.235 33.964C190.743 34.132 190.185 34.216 189.561 34.216Z" fill="white"/>
</svg>
