<svg width="591" height="34" viewBox="0 0 591 34" fill="none" xmlns="http://www.w3.org/2000/svg">
<path d="M591 34H522.885L499.196 16.8846H321L316 0H591V34Z" fill="#D2A369"/>
<path d="M0 0V17C0 17 258.756 16.9299 259 17L253.039 0.00245098L0 0Z" fill="#D8AB74"/>
<path d="M259 0L264.719 17H273.614H277.245C277.85 17 278.425 16.9433 279 16.915L273.614 0H259Z" fill="#E0BA8B" fill-opacity="0.5"/>
<path d="M279 0L284.433 17H292.884H296.333C296.908 17 297.454 16.9433 298 16.915L292.884 0H279Z" fill="#E0BA8B" fill-opacity="0.7"/>
<path d="M298 0L303.147 17H311.153H314.421C314.965 17 315.483 16.9433 316 16.915L311.153 0H298Z" fill="#E0BA8B"/>
</svg>
