<svg width="260" height="54" viewBox="0 0 260 54" fill="none" xmlns="http://www.w3.org/2000/svg">
<path d="M24 54L0 0H260V54H24Z" fill="#028EA5"/>
<path d="M97.418 34.216C96.77 34.216 96.176 34.108 95.636 33.892C95.096 33.676 94.628 33.358 94.232 32.938C93.848 32.506 93.548 31.972 93.332 31.336C93.116 30.7 93.008 29.968 93.008 29.14C93.008 28.036 93.164 27.004 93.476 26.044C93.8 25.084 94.244 24.25 94.808 23.542C95.372 22.822 96.038 22.258 96.806 21.85C97.586 21.43 98.432 21.22 99.344 21.22C100.436 21.22 101.33 21.478 102.026 21.994C102.722 22.51 103.22 23.254 103.52 24.226L101.504 25.09C101.336 24.538 101.078 24.094 100.73 23.758C100.382 23.422 99.86 23.254 99.164 23.254C98.288 23.254 97.562 23.554 96.986 24.154C96.41 24.754 96.02 25.564 95.816 26.584L95.402 28.6C95.354 28.804 95.324 28.984 95.312 29.14C95.3 29.296 95.294 29.44 95.294 29.572C95.294 30.4 95.492 31.042 95.888 31.498C96.284 31.954 96.86 32.182 97.616 32.182C98.36 32.182 98.96 32.002 99.416 31.642C99.872 31.27 100.262 30.784 100.586 30.184L102.476 31.066C101.912 32.146 101.204 32.944 100.352 33.46C99.5 33.964 98.522 34.216 97.418 34.216ZM108.149 34.216C107.045 34.216 106.163 33.88 105.503 33.208C104.843 32.536 104.513 31.57 104.513 30.31C104.513 29.482 104.633 28.708 104.873 27.988C105.113 27.268 105.449 26.644 105.881 26.116C106.313 25.576 106.823 25.156 107.411 24.856C107.999 24.544 108.647 24.388 109.355 24.388C110.459 24.388 111.341 24.724 112.001 25.396C112.661 26.068 112.991 27.034 112.991 28.294C112.991 29.122 112.871 29.896 112.631 30.616C112.391 31.336 112.055 31.966 111.623 32.506C111.191 33.034 110.675 33.454 110.075 33.766C109.487 34.066 108.845 34.216 108.149 34.216ZM108.275 32.416C108.815 32.416 109.271 32.218 109.643 31.822C110.027 31.426 110.291 30.85 110.435 30.094L110.759 28.528C110.783 28.408 110.801 28.306 110.813 28.222C110.825 28.126 110.831 28.012 110.831 27.88C110.831 27.376 110.693 26.968 110.417 26.656C110.153 26.344 109.757 26.188 109.229 26.188C108.689 26.188 108.227 26.386 107.843 26.782C107.471 27.178 107.213 27.754 107.069 28.51L106.745 30.094C106.721 30.19 106.703 30.286 106.691 30.382C106.679 30.478 106.673 30.592 106.673 30.724C106.673 31.228 106.805 31.636 107.069 31.948C107.345 32.26 107.747 32.416 108.275 32.416ZM114.754 34L116.644 24.604H118.822L118.408 26.692H118.498C118.846 25.948 119.26 25.378 119.74 24.982C120.232 24.586 120.838 24.388 121.558 24.388C122.314 24.388 122.884 24.604 123.268 25.036C123.664 25.468 123.862 26.08 123.862 26.872C123.862 27.076 123.844 27.286 123.808 27.502C123.784 27.706 123.748 27.928 123.7 28.168L122.89 32.218H123.934L123.574 34H122.062C121.63 34 121.288 33.892 121.036 33.676C120.784 33.448 120.658 33.13 120.658 32.722C120.658 32.554 120.676 32.386 120.712 32.218L121.486 28.348C121.558 28.012 121.594 27.682 121.594 27.358C121.594 27.01 121.51 26.74 121.342 26.548C121.174 26.344 120.892 26.242 120.496 26.242C120.184 26.242 119.896 26.32 119.632 26.476C119.368 26.62 119.128 26.818 118.912 27.07C118.672 27.346 118.462 27.652 118.282 27.988C118.114 28.324 117.994 28.678 117.922 29.05L116.932 34H114.754ZM128.597 34C127.301 34 126.653 33.466 126.653 32.398C126.653 32.302 126.659 32.194 126.671 32.074C126.683 31.942 126.701 31.81 126.725 31.678L127.787 26.386H126.437L126.779 24.604H127.445C127.817 24.604 128.063 24.532 128.183 24.388C128.315 24.232 128.411 23.992 128.471 23.668L128.795 22.03H130.829L130.325 24.604H132.215L131.855 26.386H129.965L128.795 32.218H130.577L130.217 34H128.597ZM140.115 34C139.683 34 139.329 33.886 139.053 33.658C138.777 33.43 138.639 33.112 138.639 32.704C138.639 32.608 138.645 32.506 138.657 32.398C138.681 32.29 138.699 32.206 138.711 32.146L138.765 31.858H138.675C138.291 32.626 137.865 33.214 137.397 33.622C136.929 34.018 136.335 34.216 135.615 34.216C135.183 34.216 134.799 34.138 134.463 33.982C134.139 33.814 133.869 33.58 133.653 33.28C133.437 32.98 133.275 32.626 133.167 32.218C133.059 31.81 133.005 31.354 133.005 30.85C133.005 29.938 133.113 29.092 133.329 28.312C133.545 27.52 133.845 26.836 134.229 26.26C134.625 25.672 135.093 25.216 135.633 24.892C136.185 24.556 136.785 24.388 137.433 24.388C138.069 24.388 138.603 24.556 139.035 24.892C139.467 25.228 139.725 25.666 139.809 26.206H139.899L140.223 24.604H142.401L140.871 32.218H142.005L141.663 34H140.115ZM136.605 32.398C136.953 32.398 137.265 32.314 137.541 32.146C137.829 31.966 138.075 31.756 138.279 31.516C138.519 31.252 138.717 30.952 138.873 30.616C139.029 30.268 139.149 29.902 139.233 29.518L139.557 27.916C139.653 27.436 139.545 27.034 139.233 26.71C138.933 26.374 138.495 26.206 137.919 26.206C136.683 26.206 135.909 26.98 135.597 28.528L135.345 29.824C135.321 29.956 135.297 30.118 135.273 30.31C135.249 30.502 135.237 30.67 135.237 30.814C135.237 31.294 135.351 31.678 135.579 31.966C135.819 32.254 136.161 32.398 136.605 32.398ZM147.907 34.216C147.391 34.216 146.911 34.138 146.467 33.982C146.035 33.814 145.657 33.568 145.333 33.244C145.009 32.92 144.757 32.506 144.577 32.002C144.397 31.498 144.307 30.904 144.307 30.22C144.307 29.392 144.427 28.624 144.667 27.916C144.907 27.196 145.243 26.578 145.675 26.062C146.107 25.534 146.623 25.126 147.223 24.838C147.823 24.538 148.477 24.388 149.185 24.388C150.061 24.388 150.793 24.604 151.381 25.036C151.981 25.468 152.347 26.038 152.479 26.746L150.643 27.466C150.511 27.07 150.337 26.758 150.121 26.53C149.905 26.302 149.551 26.188 149.059 26.188C147.883 26.188 147.157 26.914 146.881 28.366L146.557 29.932C146.497 30.208 146.467 30.466 146.467 30.706C146.467 31.21 146.599 31.624 146.863 31.948C147.127 32.26 147.541 32.416 148.105 32.416C148.573 32.416 148.951 32.284 149.239 32.02C149.539 31.744 149.833 31.348 150.121 30.832L151.795 31.624C151.387 32.476 150.853 33.124 150.193 33.568C149.545 34 148.783 34.216 147.907 34.216ZM156.28 34C154.984 34 154.336 33.466 154.336 32.398C154.336 32.302 154.342 32.194 154.354 32.074C154.366 31.942 154.384 31.81 154.408 31.678L155.47 26.386H154.12L154.462 24.604H155.128C155.5 24.604 155.746 24.532 155.866 24.388C155.998 24.232 156.094 23.992 156.154 23.668L156.478 22.03H158.512L158.008 24.604H159.898L159.538 26.386H157.648L156.478 32.218H158.26L157.9 34H156.28ZM170.304 21.436L168.774 29.05C168.726 29.266 168.69 29.47 168.666 29.662C168.642 29.854 168.63 30.04 168.63 30.22C168.63 30.868 168.798 31.36 169.134 31.696C169.482 32.02 169.974 32.182 170.61 32.182C171.438 32.182 172.074 31.936 172.518 31.444C172.974 30.952 173.31 30.166 173.526 29.086L175.056 21.436H177.324L175.794 29.05C175.614 29.962 175.38 30.742 175.092 31.39C174.804 32.038 174.444 32.572 174.012 32.992C173.592 33.412 173.088 33.724 172.5 33.928C171.924 34.12 171.252 34.216 170.484 34.216C169.176 34.216 168.174 33.886 167.478 33.226C166.782 32.554 166.434 31.57 166.434 30.274C166.434 30.034 166.446 29.776 166.47 29.5C166.494 29.224 166.542 28.924 166.614 28.6L168.036 21.436H170.304ZM181.608 34.216C180.852 34.216 180.144 34.078 179.484 33.802C178.836 33.514 178.314 33.094 177.918 32.542L179.304 31.264C179.58 31.636 179.904 31.924 180.276 32.128C180.66 32.332 181.122 32.434 181.662 32.434C182.25 32.434 182.688 32.314 182.976 32.074C183.276 31.834 183.426 31.54 183.426 31.192C183.426 30.964 183.354 30.766 183.21 30.598C183.066 30.43 182.796 30.316 182.4 30.256L181.518 30.13C180.738 30.01 180.126 29.752 179.682 29.356C179.238 28.96 179.016 28.384 179.016 27.628C179.016 27.196 179.088 26.788 179.232 26.404C179.388 26.008 179.622 25.666 179.934 25.378C180.246 25.078 180.636 24.838 181.104 24.658C181.584 24.478 182.142 24.388 182.778 24.388C184.242 24.388 185.37 24.874 186.162 25.846L184.758 27.124C184.53 26.836 184.236 26.608 183.876 26.44C183.528 26.26 183.126 26.17 182.67 26.17C182.166 26.17 181.782 26.278 181.518 26.494C181.266 26.698 181.14 26.974 181.14 27.322C181.14 27.55 181.212 27.748 181.356 27.916C181.5 28.084 181.764 28.198 182.148 28.258L183.03 28.384C183.822 28.504 184.44 28.762 184.884 29.158C185.328 29.554 185.55 30.13 185.55 30.886C185.55 31.342 185.46 31.774 185.28 32.182C185.112 32.59 184.86 32.944 184.524 33.244C184.188 33.544 183.774 33.784 183.282 33.964C182.79 34.132 182.232 34.216 181.608 34.216Z" fill="white"/>
</svg>
