<svg width="109" height="75" viewBox="0 0 109 75" fill="none" xmlns="http://www.w3.org/2000/svg">
<path opacity="0.3" d="M106.19 27.2549H104.231L103.694 29.6232H105.706L106.19 27.2549Z" fill="white"/>
<path d="M93.0338 20.5455H96.4506V26.3343H99.1907V20.5455H102.607V23.2419C102.607 23.5059 102.534 23.702 102.382 23.834C102.23 23.966 102.049 24.0301 101.835 24.0301H100.836L101.321 26.3984H102.611C103.362 26.3531 104.009 26.1118 104.545 25.6743C105.081 25.2369 105.351 24.5769 105.351 23.702V9.49581C105.351 8.685 105.081 8.0703 104.545 7.65546C104.009 7.24063 103.362 7.01813 102.611 6.99927H101.062C102.482 5.99236 103.621 4.81951 104.479 3.48073V1.14258H90.5156V3.47696H101.642C100.544 4.87985 99.2018 6.0527 97.6117 6.9955H96.3878L94.2911 4.43108H91.5177L93.5811 6.9955H90.29V26.3984H93.0301V20.5455H93.0338ZM99.1907 9.32988H101.321C101.687 9.32988 101.994 9.45056 102.241 9.69192C102.489 9.93328 102.611 10.3293 102.611 10.8761V12.5543H99.1944V9.32988H99.1907ZM99.1907 14.9226H102.607V18.1771H99.1907V14.9226ZM93.0338 9.32988H96.4506V12.5543H93.0338V9.32988ZM93.0338 14.9226H96.4506V18.1771H93.0338V14.9226Z" fill="white"/>
<path d="M91.5508 27.2552C90.3453 27.2552 89.0991 26.7197 87.8086 25.6449C88.5592 22.7298 88.9364 20.2634 88.9364 18.2458V17.0616H87.2909C88.3891 13.445 88.9364 10.4092 88.9364 7.95037V6.86426H83.2603V9.23258H86.163C86.078 10.5714 85.8561 12.0157 85.5011 13.5732C85.1461 15.1308 84.7431 16.5563 84.2919 17.8498H86.2592V18.2458C86.2592 19.8448 86.0225 21.704 85.5492 23.8196C85.0759 25.9353 84.4953 27.968 83.8075 29.9215H86.5476C86.7621 29.3294 86.9766 28.6166 87.191 27.7832C88.8477 29.0126 90.2639 29.6235 91.4472 29.6235H98.9723L99.5344 27.2552H91.5508Z" fill="white"/>
<path opacity="0.6" d="M103.351 27.2549H100.511L99.9487 29.6232H102.815L103.351 27.2549Z" fill="white"/>
<path d="M88.6777 4.59368L87.4537 0.418945H84.843L86.1003 4.59368H88.6777Z" fill="white"/>
<path d="M75.3393 6.77646C75.6351 7.06685 75.783 7.54202 75.783 8.19067V12.0637H78.353V6.55019C78.353 5.71675 78.0942 5.11713 77.5654 4.71738C77.0255 4.31009 76.3673 4.09136 75.6092 4.06873H68.2321V2.47351H77.8723V0.342773H56.1217V2.47728H65.6954V4.0725H55.5781V12.0637H58.1814V6.38049H65.6954V12.4823H68.2321V6.38049H74.2484C74.67 6.35032 75.0435 6.48985 75.3393 6.77646Z" fill="white"/>
<path d="M64.3864 7.61328H59.3906V9.39706H64.3864V7.61328Z" fill="white"/>
<path d="M64.3864 10.6797H59.3906V12.4635H64.3864V10.6797Z" fill="white"/>
<path d="M74.5774 7.61328H69.5483V9.39706H74.5774V7.61328Z" fill="white"/>
<path d="M74.5776 10.6797H69.5486V12.4635H74.5776V10.6797Z" fill="white"/>
<path d="M69.0198 27.2617C68.7276 27.2617 68.4873 27.0204 68.4873 26.7187V24.5691H77.314V16.3629C77.314 15.752 77.081 15.2165 76.6188 14.7677C76.1529 14.3189 75.4318 14.0889 74.4704 14.0889H57.1646V24.5728H65.8877V26.7224C65.8877 28.4836 67.2929 29.9166 69.0198 29.9204H72.6067L71.7894 27.2655L69.0198 27.2617ZM68.6685 16.2121H73.8639C74.3557 16.2121 74.7514 16.6194 74.7514 17.1172V18.3579H68.6685V16.2121ZM68.6685 20.1492H74.7514V22.295H68.6685V20.1492ZM65.8064 22.295H59.7234V20.1492H65.8064V22.295ZM65.8064 18.3579H59.7234V16.2121H65.8064V18.3579Z" fill="white"/>
<path opacity="0.6" d="M72.5291 27.2617L73.3463 29.9167H74.622H75.1434C75.2285 29.9167 75.3135 29.9091 75.3986 29.9016L74.622 27.2617H72.5291Z" fill="white"/>
<path opacity="0.3" d="M75.3616 27.2617L76.1788 29.9167H77.4545H77.9759C78.061 29.9167 78.146 29.9091 78.2311 29.9016L77.4545 27.2617H75.3616Z" fill="white"/>
<path d="M34.6448 21.3002C36.0833 18.5773 37.1594 15.8922 37.8694 13.2524H35.2883C34.8815 14.6025 34.386 15.9752 33.8054 17.3706H31.1282C31.816 16.5032 32.5519 15.2285 33.3358 13.539C34.1198 11.8495 34.8556 9.8319 35.5434 7.48621H32.9328C32.2671 9.68482 31.5128 11.6308 30.6771 13.3316C29.8377 15.0324 29.0537 16.3787 28.3216 17.3706V19.6521H32.7701C31.9085 21.4058 31.0321 23.0047 30.1409 24.4529C29.2497 25.901 28.6433 26.8438 28.3179 27.2888V29.5704H32.7664C34.1863 29.5704 35.377 29.412 36.3458 29.0953L36.5381 29.9174H39.1821L37.311 21.3002H34.6448ZM32.7737 27.2888H31.1282C31.4056 26.8891 31.8789 26.1537 32.5482 25.0865C33.2138 24.0192 33.9127 22.7785 34.6448 21.3643L35.8688 26.8778C34.8815 27.1531 33.8498 27.2888 32.7737 27.2888Z" fill="white"/>
<path d="M48.8666 13.2559H48.8555V13.2898C48.8592 13.2747 48.8629 13.2672 48.8666 13.2559Z" fill="white"/>
<path d="M33.7277 6.40383H36.4678V4.59365H42.5323V6.40383H45.3056V4.59365H50.6268V2.25927H45.3056V0.0908203H42.5323V2.25927H36.4678V0.0908203H33.7277V2.25927H28.3733V4.59365H33.7277V6.40383Z" fill="white"/>
<path opacity="0.3" d="M49.1698 11.9509V11.917H46.5998C46.4556 12.4148 46.2966 12.9201 46.1265 13.4217H48.7297C48.8813 12.939 49.0293 12.4525 49.1698 11.9509Z" fill="white"/>
<path d="M48.8038 21.3004H46.1598L47.3209 26.7498C46.3336 27.1081 45.1614 27.2891 43.8043 27.2891H42.1588C43.1461 25.8334 44.2961 23.8988 45.6088 21.4927C46.4372 19.9692 47.1767 18.3098 47.8238 16.5147H45.1725C45.0616 16.8014 44.9543 17.088 44.8323 17.3746H42.1218C42.8096 16.5072 43.5566 15.2325 44.3627 13.543C45.1688 11.8535 45.8936 9.83593 46.5407 7.49023H43.93C43.2644 9.68885 42.5212 11.6348 41.7039 13.3356C40.8867 15.0364 40.0917 16.3828 39.3188 17.3746V19.6562H43.8006C43.1757 20.8818 42.5064 22.1263 41.7853 23.3934C41.0642 24.6606 40.4911 25.6185 40.0584 26.2596C39.6295 26.9044 39.4039 27.2476 39.3817 27.2891H39.3188V29.5707H43.8006C45.435 29.5707 46.7663 29.3708 47.798 28.9673L48.0235 29.9176H50.6675L48.8038 21.3004Z" fill="white"/>
<path opacity="0.6" d="M48.619 14.0594H46.0157C45.8197 14.6402 45.6052 15.2248 45.376 15.8131H48.0273C48.2344 15.2398 48.4304 14.6591 48.619 14.0594Z" fill="white"/>
<path d="M7.97991 1.35387C7.45112 0.946584 6.804 0.735396 6.02745 0.712769H1.32382V19.5575C1.32382 21.5525 1.1944 23.4645 0.93555 25.2973C0.676702 27.1301 0.366085 28.6688 0 29.917H2.77337C3.13945 28.8196 3.45007 27.3866 3.70892 25.6103C3.96777 23.8341 4.09719 21.8844 4.09719 19.7574V19.0673H6.03115V26.7643C6.03115 27.2923 5.80558 27.5525 5.35445 27.5525H5.25831H4.38932L4.87373 29.9208H6.03485C6.80769 29.8756 7.45851 29.6191 7.9873 29.1477C8.51239 28.6763 8.77864 27.9485 8.77864 26.9604V15.4167V3.21308C8.77124 2.37964 8.50869 1.76117 7.97991 1.35387ZM6.03115 16.6989H4.09719V11.2043H6.03115V16.6989ZM6.03115 8.83596H4.09719V3.21308H5.12888C5.36554 3.23571 5.57632 3.32999 5.75751 3.49215C5.93871 3.65809 6.03115 3.90321 6.03115 4.23131V8.83596Z" fill="white"/>
<path d="M13.8336 3.27717L12.6096 0.350708H9.80298L11.0602 3.27717H13.8336Z" fill="white"/>
<path d="M22.5419 0.350708H19.7685L18.5112 3.27717H21.3179L22.5419 0.350708Z" fill="white"/>
<path d="M20.7633 22.2879H17.8088V21.0057H21.3587V19.8215H17.8088V18.6939H21.3587V17.5097H17.8088V16.2275H18.3154C18.3672 16.22 18.4337 16.2238 18.4929 16.2275H21.5621V16.1069C21.5806 15.9145 21.551 15.7033 21.4733 15.462L21.4142 15.2772H23.4184C22.8859 14.753 22.3238 14.1232 21.7396 13.4029C21.0592 12.5657 20.4416 11.687 19.9055 10.7894L19.776 10.5745H22.6566V8.48523H16.5922L16.6699 8.28913C16.9435 7.60277 17.1247 6.90509 17.2097 6.21873L17.2245 6.09428H22.4015V4.04274H17.3724V0H14.8764V4.04651H9.94351V6.09805H14.7803L14.7433 6.26776C14.5917 6.9956 14.3587 7.7159 14.0555 8.40226L14.0185 8.48523H9.65138V10.5707H12.9277L12.7871 10.7894C11.7517 12.4035 10.5204 13.912 9.1189 15.2734H10.7459L10.5019 24.1848H20.0053C20.4897 24.1848 20.8817 24.5845 20.8817 25.0786V26.983C20.8817 27.5487 20.4342 28.005 19.8796 28.005H19.4654H12.6577L13.0275 30H19.9831C20.8854 30 21.7581 29.8944 22.4643 29.2608C22.9562 28.8196 23.1447 27.8957 23.1447 26.9566V24.2376C23.13 22.8008 21.8542 22.2879 20.7633 22.2879ZM13.3122 13.9082C14.1405 12.9541 14.9171 11.8567 15.6197 10.6424L15.6603 10.5745H17.1765L17.2171 10.6461C17.8975 11.8831 18.6186 12.9843 19.3656 13.9158L19.5505 14.1458H13.1088L13.3122 13.9082ZM16.1965 22.2879H13.2124V21.0057H16.1965V22.2879ZM16.1965 19.8215H13.2124V18.6939H16.1965V19.8215ZM16.1965 17.506H13.2124V16.2238H16.1965V17.506Z" fill="white"/>
<path d="M9.71777 29.5399L10.6681 25.0936H12.8129L11.4484 29.5399H9.71777Z" fill="white"/>
<path opacity="0.7" d="M13.2605 27.3149L13.316 25.0936H15.0724L14.71 27.3149H13.2605Z" fill="white"/>
<path opacity="0.6" d="M15.7417 27.3149L15.7122 25.0936H17.5278L17.1654 27.3149H15.7417Z" fill="white"/>
<path opacity="0.4" d="M19.6909 25.0936L19.495 27.3149H18.2414L18.0454 25.0936H19.6909Z" fill="white"/>
<path d="M1.56787 45.041H0V56.0907H1.56787V45.041Z" fill="white"/>
<path d="M7.93177 48.1339H4.17847V56.0761H5.67979V49.4388H7.71729C8.12035 49.4388 8.44207 49.5443 8.68243 49.748C8.91539 49.9516 9.03741 50.2986 9.03741 50.7813V56.0761H10.5276V50.77C10.5276 49.8762 10.2873 49.2087 9.81026 48.7788C9.33694 48.3526 8.70461 48.1339 7.93177 48.1339Z" fill="white"/>
<path d="M15.6272 45.2568H14.1111V48.1343H12.166V49.424H14.1111V53.3348C14.1185 54.3115 14.3958 55.0205 14.932 55.4391C15.4608 55.8539 16.2817 56.0614 17.3726 56.0614H17.465V54.7188H17.3726C16.7476 54.7188 16.3002 54.6094 16.0376 54.3983C15.7825 54.1908 15.642 53.8326 15.6272 53.331V49.424H17.465V48.1343H15.6272V45.2568Z" fill="white"/>
<path d="M23.9065 48.2357C23.3592 48.0622 22.8526 47.9717 22.4015 47.9717C21.5695 47.9717 20.7338 48.2432 19.9092 48.7749C19.0734 49.318 18.6482 50.4154 18.6482 52.0446C18.6482 53.6926 19.0587 54.79 19.8685 55.3067C20.6635 55.8158 21.5473 56.076 22.4939 56.076H25.8737V54.7599H22.4385C21.9614 54.7599 21.4881 54.6128 21.0296 54.3186C20.6006 54.0433 20.3307 53.504 20.2272 52.7083H26.1511V52.0446C26.1511 50.8981 25.9144 50.0081 25.4448 49.4047C24.9826 48.8051 24.4649 48.4129 23.9065 48.2357ZM20.2272 51.3809C20.3233 50.5587 20.5822 50.0081 21 49.7441C21.8949 49.1709 22.934 49.1822 23.8178 49.7441C24.2356 50.0119 24.4982 50.5625 24.6017 51.3809H20.2272Z" fill="white"/>
<path d="M29.7119 45H28.2217V56.0911H29.7119V45Z" fill="white"/>
<path d="M37.0745 48.2357C36.5272 48.0622 36.0206 47.9717 35.5695 47.9717C34.7374 47.9717 33.9017 48.2432 33.0771 48.7749C32.2414 49.318 31.8162 50.4154 31.8162 52.0446C31.8162 53.6926 32.2266 54.79 33.0364 55.3067C33.8315 55.8158 34.7153 56.076 35.6619 56.076H39.0417V54.7599H35.6064C35.1294 54.7599 34.6561 54.6128 34.1976 54.3186C33.7686 54.0433 33.4987 53.504 33.3951 52.7083H39.319V52.0446C39.319 50.8981 39.0824 50.0081 38.6128 49.4047C38.1505 48.8051 37.6291 48.4129 37.0745 48.2357ZM33.3951 51.3809C33.4913 50.5587 33.7501 50.0081 34.168 49.7441C35.0628 49.1709 36.1056 49.1822 36.9857 49.7441C37.4036 50.0119 37.6661 50.5625 37.7697 51.3809H33.3951Z" fill="white"/>
<path d="M42.3698 48.4054C41.889 48.5865 41.4564 48.9447 41.0903 49.4689C40.7205 49.9931 40.5356 50.7436 40.5356 51.6902C40.5356 52.5915 40.7057 53.3156 41.0422 53.8398C41.3787 54.364 41.7929 54.7335 42.2773 54.9334C42.7506 55.1333 43.2351 55.2313 43.7158 55.2313H45.4722V55.8687C45.4722 56.2496 45.3687 56.5663 45.1616 56.8039C44.9582 57.0377 44.6513 57.1584 44.2446 57.1584H41.131V58.4067H44.4332C45.2023 58.4067 45.8124 58.1653 46.2451 57.6902C46.6777 57.2188 46.8959 56.6078 46.8959 55.88V48.1339H43.7158C43.2979 48.1339 42.8468 48.2282 42.3698 48.4054ZM43.7158 53.9604C43.4643 53.9604 43.1981 53.8963 42.9281 53.7643C42.6619 53.6361 42.4289 53.4023 42.2293 53.0667C42.0296 52.731 41.9297 52.2672 41.9297 51.6902C41.9297 50.8002 42.1257 50.1855 42.5066 49.8611C42.8949 49.533 43.3016 49.3633 43.7121 49.352H45.4685V53.9567H43.7158V53.9604Z" fill="white"/>
<path d="M53.7256 48.2357C53.1783 48.0622 52.6717 47.9717 52.2206 47.9717C51.3886 47.9717 50.5529 48.2432 49.7282 48.7749C48.8925 49.3142 48.4673 50.4154 48.4673 52.0446C48.4673 53.6926 48.8777 54.79 49.6876 55.3067C50.4826 55.8158 51.3664 56.076 52.313 56.076H55.6928V54.7599H52.2576C51.7805 54.7599 51.3072 54.6128 50.8487 54.3186C50.4197 54.0433 50.1498 53.504 50.0463 52.7083H55.9702V52.0446C55.9702 50.8981 55.7335 50.0081 55.2639 49.4047C54.8017 48.8051 54.284 48.4129 53.7256 48.2357ZM50.0463 51.3809C50.1424 50.5587 50.4012 50.0081 50.8191 49.7441C51.7177 49.1709 52.7568 49.1822 53.6368 49.7441C54.0547 50.0081 54.3172 50.5625 54.4208 51.3809H50.0463Z" fill="white"/>
<path d="M61.5799 48.1339H57.8267V56.0761H59.328V49.4388H61.3655C61.7648 49.4388 62.0902 49.5443 62.3306 49.748C62.5636 49.9516 62.6856 50.2986 62.6856 50.7813V56.0761H64.1758V50.77C64.1758 49.8762 63.9355 49.2087 63.4585 48.7788C62.9851 48.3526 62.3528 48.1339 61.5799 48.1339Z" fill="white"/>
<path d="M67.3301 48.8882C66.4722 49.3973 66.0396 50.4683 66.0396 52.0711C66.0396 53.7115 66.4685 54.8014 67.3153 55.3143C68.1473 55.8196 69.0644 56.0723 70.0443 56.0723H72.2815V54.7712H69.9925C69.4009 54.7712 68.8351 54.5978 68.31 54.2584C67.7997 53.9265 67.5409 53.1911 67.5409 52.0711C67.5409 51.0227 67.8071 50.3174 68.3322 49.9705C68.8684 49.616 69.4268 49.435 69.9925 49.435H72.2815V48.1339H70.0443C69.0866 48.1339 68.1732 48.3904 67.3301 48.8882Z" fill="white"/>
<path d="M81.3225 52.0446C81.3225 50.8981 81.0858 50.0081 80.6162 49.4047C80.1503 48.8051 79.6289 48.4091 79.0742 48.2319C78.5269 48.0584 78.0203 47.9679 77.5692 47.9679C76.7372 47.9679 75.9015 48.2394 75.0769 48.7712C74.2412 49.3104 73.8159 50.4116 73.8159 52.0408C73.8159 53.6888 74.2264 54.7862 75.0362 55.3029C75.8312 55.812 76.715 56.0722 77.6616 56.0722H81.0415V54.7561H77.6062C77.1292 54.7561 76.6558 54.609 76.1973 54.3148C75.7684 54.0395 75.4984 53.5003 75.3949 52.7045H81.3188V52.0446H81.3225ZM75.3949 51.3808C75.491 50.5587 75.7499 50.0081 76.1677 49.7441C77.0663 49.1709 78.1054 49.1822 78.9855 49.7441C79.4033 50.0081 79.6659 50.5625 79.7694 51.3808H75.3949Z" fill="white"/>
<path d="M0 69.079C0 70.3877 0.22926 71.4059 0.676697 72.1036C1.12783 72.8088 1.69731 73.2839 2.36292 73.5178C3.01003 73.7403 3.7422 73.8534 4.53354 73.8534H6.9704V72.443H4.61119C3.69043 72.443 2.94346 72.1978 2.38879 71.7189C1.84521 71.2437 1.56048 70.3575 1.54569 69.0828C1.56048 67.8044 1.84151 66.9144 2.38879 66.4392C2.93977 65.9565 3.68673 65.7151 4.60749 65.7151H6.9667V64.3047H4.52983C3.27627 64.3047 2.20021 64.6328 1.33492 65.2814C0.458536 65.9414 0.00739565 67.2198 0 69.079Z" fill="white"/>
<path d="M14.8874 70.4065C14.8874 68.9961 14.4991 68.0382 13.7337 67.5593C12.9978 67.0992 12.2065 66.8654 11.3819 66.8654C10.5498 66.8654 9.75852 67.0992 9.03005 67.5593C8.272 68.0382 7.89111 68.9961 7.89111 70.4065C7.89111 71.8396 8.27199 72.8012 9.02265 73.2651C9.74372 73.7101 10.5388 73.9326 11.3856 73.9326C12.225 73.9326 13.02 73.7063 13.7485 73.2651C14.5028 72.8012 14.8874 71.8396 14.8874 70.4065ZM12.7501 72.1639C12.3137 72.4468 11.8441 72.5901 11.3782 72.5901C10.9085 72.5901 10.4426 72.4468 10.0063 72.1639C9.59581 71.8999 9.38874 71.3078 9.38874 70.4065C9.38874 69.5354 9.59951 68.9546 10.0174 68.6755C10.9011 68.091 11.8404 68.0835 12.739 68.6755C13.1568 68.9508 13.3713 69.5354 13.3713 70.4065C13.3676 71.3041 13.1605 71.8962 12.7501 72.1639Z" fill="white"/>
<path d="M17.5684 72.6467C17.3983 72.4732 17.1875 72.3827 16.9508 72.3827C16.7031 72.3827 16.4923 72.4732 16.3259 72.6467C16.1595 72.8201 16.0745 73.0351 16.0745 73.2765C16.0745 73.5178 16.1595 73.7328 16.3222 73.91C16.4886 74.0873 16.7068 74.1816 16.9508 74.1816C17.1949 74.1816 17.4131 74.091 17.5758 73.9138C17.7422 73.7403 17.8272 73.5254 17.8272 73.2727C17.8272 73.0351 17.7422 72.8239 17.5684 72.6467Z" fill="white"/>
<path d="M22.0169 73.7441C22.0686 73.6536 22.0945 73.5895 22.0945 73.5292V72.7372C22.0945 72.6656 22.0649 72.5977 22.0169 72.5449C21.9651 72.4921 21.8985 72.4619 21.8283 72.4619H21.0776C21.0073 72.4619 20.9408 72.4883 20.8927 72.5373C20.8446 72.5864 20.8188 72.6505 20.8188 72.7221V73.5103C20.8188 73.5744 20.8446 73.6385 20.8927 73.6876C20.9038 73.6989 20.9149 73.7064 20.926 73.7177L21.1368 73.8686L20.9297 74.0232C20.8594 74.076 20.7781 74.1288 20.6893 74.1778L20.5747 74.2457L20.8188 74.4946L20.8742 74.4833C21.2218 74.4116 21.5694 74.2155 21.8689 73.9214C21.9207 73.8799 21.9651 73.8309 22.0169 73.7441Z" fill="white"/>
<path d="M25.5742 64.2783H24.0876V73.8647H25.5742V64.2783Z" fill="white"/>
<path d="M29.0984 73.2918C29.5643 73.6576 30.2817 73.8424 31.2247 73.8424H31.4169V72.4772H31.2247C30.6034 72.4772 30.3076 72.3452 30.1708 72.2359C29.9822 72.085 29.8823 71.8135 29.8675 71.4326V68.2497H31.4169V66.9298H29.8675V64.5049H28.3588V66.9298H26.7207V68.2497H28.3588V71.4326C28.3662 72.2887 28.6177 72.9147 29.0984 73.2918Z" fill="white"/>
<path d="M33.6354 73.1934C34.3158 73.6309 35.0665 73.8534 35.8652 73.8534H38.6164V64.3009H37.1409V66.9219H35.8615C33.702 66.9219 32.5593 68.1174 32.5593 70.3801C32.563 71.7905 32.9217 72.7371 33.6354 73.1934ZM34.5968 68.6642C34.974 68.3927 35.3845 68.2531 35.8208 68.2531H37.1446V72.5071H35.8208C35.3993 72.5071 34.9925 72.3638 34.6079 72.0847C34.2455 71.8207 34.0607 71.2475 34.0607 70.3801C34.0607 69.5127 34.2455 68.9169 34.5968 68.6642Z" fill="white"/>
<path d="M41.937 72.6467C41.7669 72.4732 41.5562 72.3827 41.3195 72.3827C41.0754 72.3827 40.8573 72.4732 40.6946 72.6467C40.5282 72.8201 40.4431 73.0351 40.4431 73.2765C40.4431 73.5178 40.5282 73.7328 40.6909 73.91C40.8573 74.0873 41.0754 74.1816 41.3195 74.1816C41.5673 74.1816 41.778 74.091 41.9481 73.9138C42.1145 73.7403 42.1996 73.5254 42.1996 73.2727C42.1959 73.0351 42.1108 72.8239 41.937 72.6467Z" fill="white"/>
</svg>
