<svg width="52" height="44" viewBox="0 0 52 44" fill="none" xmlns="http://www.w3.org/2000/svg">
<g clip-path="url(#clip0_559_942)">
<path d="M23.8364 38.9785H16.242L14.9006 31.4451H22.4991L23.8364 38.9785Z" stroke="white" stroke-width="1.5" stroke-miterlimit="10"/>
<path d="M16.1029 32.4593H14.0581L13.6982 30.4309H15.743L16.1029 32.4593Z" fill="white"/>
<path d="M23.7015 32.4593H21.6567L21.2927 30.4309H23.3375L23.7015 32.4593Z" fill="white"/>
<path d="M25.0387 39.9928H22.9939L22.634 37.9644H24.6788L25.0387 39.9928Z" fill="white"/>
<path d="M17.4445 39.9928H15.3997L15.0398 37.9644H17.0846L17.4445 39.9928Z" fill="white"/>
<path d="M23.4766 36.9502H34.179" stroke="white" stroke-width="1.5" stroke-miterlimit="10"/>
<path d="M44.8938 28.8366L41.7653 11.222L39.1234 8.99484H23.223L18.1765 4.73926H4.81982L10.5453 36.9502H15.8822" stroke="white" stroke-width="1.5" stroke-miterlimit="10"/>
<path d="M6.29614 13.0396H37.1563" stroke="white" stroke-width="1.5" stroke-miterlimit="10"/>
<path d="M10.2754 22.9623H6.00584L5.24927 18.7271H9.5229L10.2754 22.9623Z" fill="white"/>
<path opacity="0.3" d="M23.5666 22.9623H19.293L18.5405 18.7271H22.8142L23.5666 22.9623Z" fill="white"/>
<path opacity="0.5" d="M16.9292 22.9623H12.6556L11.9031 18.7271H16.1726L16.9292 22.9623Z" fill="white"/>
<path d="M37.6689 38.2916C39.8134 35.9683 39.2887 32.0293 36.4969 29.4935C33.7051 26.9577 29.7035 26.7854 27.559 29.1086C25.4145 31.4318 25.9392 35.3709 28.731 37.9067C31.5227 40.4425 35.5244 40.6148 37.6689 38.2916Z" fill="#028EA5" stroke="#028EA5" stroke-width="1.5" stroke-miterlimit="10"/>
<path d="M46.6003 38.2913C48.7448 35.9681 48.2201 32.0291 45.4283 29.4932C42.6365 26.9574 38.6349 26.7851 36.4904 29.1083C34.3459 31.4316 34.8706 35.3706 37.6624 37.9064C40.4541 40.4422 44.4558 40.6146 46.6003 38.2913Z" stroke="white" stroke-width="1.5" stroke-miterlimit="10"/>
<path d="M41.1086 31.1761C43.2531 28.8529 42.7284 24.9138 39.9366 22.378C37.1448 19.8422 33.1432 19.6699 30.9987 21.9931C28.8542 24.3164 29.3789 28.2554 32.1707 30.7912C34.9624 33.327 38.9641 33.4993 41.1086 31.1761Z" stroke="white" stroke-width="1.5" stroke-miterlimit="10"/>
</g>
<defs>
<clipPath id="clip0_559_942">
<rect width="46" height="38" fill="white" transform="translate(3 3)"/>
</clipPath>
</defs>
</svg>
