<svg width="52" height="44" viewBox="0 0 52 44" fill="none" xmlns="http://www.w3.org/2000/svg">
<path d="M35.2485 9.06787H44.2844L48.2974 31.643H11.7174L7.70435 9.06787H18.0464" stroke="white" stroke-width="1.5" stroke-miterlimit="10"/>
<path d="M23.6101 31.6431L22.7925 35.2941L38.4603 35.1584L36.0825 31.6431H23.6101Z" stroke="white" stroke-width="1.5" stroke-miterlimit="10"/>
<path d="M41.1326 38.0333H21.3071L20.9929 35.5159H40.8152L41.1326 38.0333Z" stroke="white" stroke-width="1.5" stroke-miterlimit="10"/>
<path d="M38.7567 17.0679L38.2356 14.1373L34.9391 13.6398C34.6394 12.9677 34.2583 12.3312 33.8088 11.7431L35.2616 9.13894L32.8056 7.06785L30.5189 8.9677C29.8674 8.62521 29.1769 8.36026 28.4668 8.18256L27.4016 5H24.4472L24.5124 8.18256C23.8674 8.36026 23.2713 8.62521 22.7404 8.9677L19.7794 7.06785L18.0595 9.13894L20.4374 11.7431C20.1964 12.3312 20.04 12.9677 19.9814 13.6398L16.8608 14.1373L17.382 17.0679L20.6785 17.5654C20.9781 18.2375 21.3592 18.874 21.8088 19.4621L20.356 22.0663L22.812 24.1374L25.0987 22.2375C25.7501 22.58 26.4407 22.8449 27.1508 23.0226L28.2192 26.2052H31.1736L31.1085 23.0226C31.7534 22.8449 32.3495 22.58 32.8805 22.2375L35.8414 24.1374L37.5613 22.0663L35.1834 19.4621C35.4245 18.874 35.5808 18.2375 35.6394 17.5654L38.7567 17.0679ZM28.5319 19.6785C26.2615 19.6785 24.0954 17.853 23.6948 15.601C23.2941 13.349 24.8088 11.5234 27.0791 11.5234C29.3495 11.5234 31.5156 13.349 31.9163 15.601C32.3202 17.853 30.8023 19.6785 28.5319 19.6785Z" stroke="white" stroke-width="1.5" stroke-miterlimit="10"/>
<path d="M13.2549 25.8723H17.8999" stroke="white" stroke-width="1.5" stroke-miterlimit="10"/>
<path d="M13.7078 28.4216H23.8577" stroke="white" stroke-width="1.5" stroke-miterlimit="10"/>
<path d="M40.7502 25.8723H45.3985" stroke="white" stroke-width="1.5" stroke-miterlimit="10"/>
<path d="M41.9358 23.3264H44.9456" stroke="white" stroke-width="1.5" stroke-miterlimit="10"/>
<path d="M35.7012 28.4216H45.8511" stroke="white" stroke-width="1.5" stroke-miterlimit="10"/>
<path d="M7.4691 21.4495H4.51871L4 18.5229H6.9504L7.4691 21.4495Z" fill="#028EA5"/>
<path opacity="0.3" d="M16.2953 21.458H13.3449L12.8262 18.5315H15.7724L16.2953 21.458Z" fill="white"/>
<path d="M11.8746 21.4495H8.92837L8.40552 18.5229H11.3559L11.8746 21.4495Z" fill="#E0BA8B"/>
</svg>
