<svg width="60" height="50" viewBox="0 0 60 50" fill="none" xmlns="http://www.w3.org/2000/svg">
<path d="M55.3588 45.4493H12.6963L5.64062 4.55078H48.3031L55.3588 45.4493Z" stroke="#00374B" stroke-width="2" stroke-miterlimit="10"/>
<path d="M17.2796 19.1231L15.0659 20.9571L15.7015 24.6306H25.951L25.3155 20.9571L22.4501 19.0625L17.2796 19.1231Z" stroke="#00374B" stroke-width="2" stroke-miterlimit="10"/>
<path d="M21.2253 15.8664C22.1935 14.7852 21.9576 12.9529 20.6984 11.7738C19.4391 10.5948 17.6334 10.5155 16.6652 11.5968C15.697 12.678 15.9329 14.5104 17.1921 15.6894C18.4514 16.8684 20.2571 16.9477 21.2253 15.8664Z" stroke="#00374B" stroke-width="2" stroke-miterlimit="10"/>
<path d="M30.4001 15.9347H43.7466" stroke="#00374B" stroke-width="2" stroke-miterlimit="10"/>
<path d="M31.0894 19.9336H44.4359" stroke="#00374B" stroke-width="2" stroke-miterlimit="10"/>
<path d="M16.4878 32.8486H34.9887" stroke="#00374B" stroke-width="2" stroke-miterlimit="10"/>
<path d="M17.1772 36.8525H35.6781" stroke="#00374B" stroke-width="2" stroke-miterlimit="10"/>
<path d="M39.9998 35.0001H46.9998" stroke="#00374B" stroke-width="2" stroke-miterlimit="10"/>
<path d="M42.9998 31.0001L43.9998 39.0001" stroke="#00374B" stroke-width="2" stroke-miterlimit="10"/>
</svg>
