<svg width="52" height="44" viewBox="0 0 52 44" fill="none" xmlns="http://www.w3.org/2000/svg">
<g clip-path="url(#clip0_559_881)">
<path d="M22.0466 29.6138C25.526 32.5567 30.3386 32.5567 32.7767 29.6138" stroke="white" stroke-width="1.5" stroke-miterlimit="10"/>
<path d="M23.9033 27.9841C25.9909 29.7499 28.8785 29.7499 30.3413 27.9841" stroke="white" stroke-width="1.5" stroke-miterlimit="10"/>
<path d="M27.6278 26.4589C28.0208 26.0319 27.9244 25.3077 27.4124 24.8413C26.9003 24.375 26.1666 24.3431 25.7735 24.7701C25.3804 25.1971 25.4769 25.9213 25.9889 26.3876C26.5009 26.854 27.2347 26.8859 27.6278 26.4589Z" stroke="white" stroke-width="1.5" stroke-miterlimit="10"/>
<path d="M10.4306 32.3041L29.3002 42.2317L45.0003 32.3041L41.8283 12.4513L22.9587 2.52612L7.25854 12.4513L10.4306 32.3041Z" stroke="white" stroke-width="1.5" stroke-miterlimit="10"/>
<path d="M43.4507 13.4212H40.4032L39.8647 10.3899H42.9123L43.4507 13.4212Z" fill="#E0BA8B"/>
<path d="M46.8997 33.4459H43.8521L43.3137 30.4146H46.3613L46.8997 33.4459Z" fill="#028EA5"/>
<path d="M31.3064 42.9896H28.2589L27.7205 39.9583H30.768L31.3064 42.9896Z" fill="#028EA5"/>
<path d="M33.7444 19.7973C33.5565 19.4563 33.3279 19.1507 33.0994 18.898C32.7794 18.5469 32.3248 18.221 31.8143 17.9937C31.2581 17.7461 30.6334 17.6148 30.0416 17.688C29.8283 17.2182 29.5515 16.7786 29.2213 16.377C28.2435 15.0407 26.702 14.2348 24.9623 14.1489C24.9395 14.1489 24.9141 14.1464 24.8912 14.1439C24.8582 14.1464 24.8252 14.1464 24.7922 14.1439C24.7566 14.1439 24.7211 14.1414 24.683 14.1414C24.6779 14.1414 24.6728 14.1414 24.6677 14.1414C24.6626 14.1414 24.6576 14.1414 24.6525 14.1414C24.6169 14.1414 24.5814 14.1439 24.5458 14.1439C24.5128 14.1439 24.4798 14.1439 24.4468 14.1464C24.4239 14.1464 24.4011 14.1489 24.3757 14.1515C22.6639 14.2374 21.4093 15.0432 20.9065 16.3795C20.7186 16.7812 20.5967 17.2207 20.5509 17.6906C19.9338 17.6148 19.3573 17.7487 18.8875 17.9962C18.4557 18.2236 18.1154 18.5494 17.9224 18.9006C17.7827 19.1532 17.6634 19.4563 17.5973 19.7999C17.5338 20.1308 17.5211 20.4971 17.5897 20.8886H34.1381C34.0695 20.4946 33.9248 20.1283 33.7444 19.7973Z" stroke="white" stroke-width="1.5" stroke-miterlimit="10"/>
<path d="M24.4011 4.0416H21.3535L20.8176 1.01025H23.8652L24.4011 4.0416Z" fill="#028EA5"/>
<path d="M8.77974 13.4212H5.73216L5.19629 10.3899H8.24387L8.77974 13.4212Z" fill="#028EA5"/>
<path d="M12.3301 33.4459H9.28255L8.74414 30.4146H11.7917L12.3301 33.4459Z" fill="#E0BA8B"/>
<path opacity="0.3" d="M25.5971 5.05224H20.5178L19.6213 0H24.7006L25.5971 5.05224Z" fill="#028EA5"/>
<path opacity="0.3" d="M44.6446 14.4316H39.5653L38.6714 9.37939H43.7507L44.6446 14.4316Z" fill="#E0BA8B"/>
<path opacity="0.3" d="M48.0959 34.4563H43.0166L42.1201 29.4041H47.1994L48.0959 34.4563Z" fill="#028EA5"/>
<path opacity="0.3" d="M32.5024 44H27.4231L26.5266 38.9478H31.6059L32.5024 44Z" fill="#028EA5"/>
<path opacity="0.3" d="M9.9758 14.4316H4.8965L4 9.37939H9.07931L9.9758 14.4316Z" fill="#028EA5"/>
<path opacity="0.3" d="M13.5236 34.4563H8.44425L7.55029 29.4041H12.6296L13.5236 34.4563Z" fill="#E0BA8B"/>
</g>
<defs>
<clipPath id="clip0_559_881">
<rect width="52" height="44" fill="white"/>
</clipPath>
</defs>
</svg>
