<svg width="52" height="44" viewBox="0 0 52 44" fill="none" xmlns="http://www.w3.org/2000/svg">
<g clip-path="url(#clip0_559_907)">
<g clip-path="url(#clip1_559_907)">
<path d="M30.9066 23.457H4.67612L3.37695 16.3237H29.6074L30.9066 23.457Z" stroke="white" stroke-width="1.5" stroke-miterlimit="10"/>
<path d="M17.7756 23.3711L18.3397 26.4756" stroke="white" stroke-width="1.5" stroke-miterlimit="10"/>
<path d="M19.6421 33.6365L20.2093 36.7409" stroke="white" stroke-width="1.5" stroke-miterlimit="10"/>
<path d="M8.01294 19.8889H20.4437" stroke="white" stroke-width="1.5" stroke-miterlimit="10"/>
<path d="M25.9096 21.025H23.5648L23.1497 18.7527H25.4945L25.9096 21.025Z" stroke="white" stroke-width="1.5" stroke-miterlimit="10"/>
<path d="M32.7318 33.4889H6.50131L5.20215 26.3557H31.4326L32.7318 33.4889Z" stroke="white" stroke-width="1.5" stroke-miterlimit="10"/>
<path d="M9.83813 29.9241H22.2689" stroke="white" stroke-width="1.5" stroke-miterlimit="10"/>
<path d="M28.0327 31.3059H25.1808L24.677 28.5422H27.5288L28.0327 31.3059Z" fill="#028EA5"/>
<path d="M34.5887 43.693H8.35825L7.05908 36.5598H33.2896L34.5887 43.693Z" stroke="white" stroke-width="1.5" stroke-miterlimit="10"/>
<path d="M11.6948 40.1248H24.1256" stroke="white" stroke-width="1.5" stroke-miterlimit="10"/>
<path d="M29.5917 41.2611H27.2469L26.8318 38.9888H29.1766L29.5917 41.2611Z" stroke="white" stroke-width="1.5" stroke-miterlimit="10"/>
<path d="M32.3674 31.9475L36.0209 28.4961L43.366 32.5893L47.8941 27.5503" stroke="white" stroke-width="1.5" stroke-miterlimit="10"/>
<path d="M32.3865 8.23877L35.6122 25.969" stroke="white" stroke-width="1.5" stroke-miterlimit="10"/>
<path d="M33.775 8.23334C34.4781 7.48916 34.3053 6.22672 33.3889 5.4136C32.4726 4.60048 31.1597 4.54459 30.4565 5.28877C29.7534 6.03295 29.9262 7.2954 30.8426 8.10852C31.7589 8.92164 33.0718 8.97752 33.775 8.23334Z" fill="#E0BA8B"/>
<path d="M24.0369 0.233398C20.9981 3.81076 22.0564 9.62973 26.3975 13.2071" stroke="white" stroke-width="1.5" stroke-miterlimit="10"/>
<path d="M26.8698 2.82812C25.0447 4.97454 25.6816 8.46592 28.2862 10.6123" stroke="white" stroke-width="1.5" stroke-miterlimit="10"/>
<path d="M37.8906 0.233398C42.2317 3.81076 43.2901 9.62973 40.2513 13.2071" stroke="white" stroke-width="1.5" stroke-miterlimit="10"/>
<path d="M36.002 2.82812C38.6066 4.97454 39.2435 8.46592 37.4184 10.6123" stroke="white" stroke-width="1.5" stroke-miterlimit="10"/>
<path d="M45.0391 27.2585H48.1317L48.6894 30.3139" stroke="white" stroke-width="1.5" stroke-miterlimit="10"/>
<path d="M39.5668 41.2611H37.222L36.8101 38.9888H39.1517L39.5668 41.2611Z" fill="white"/>
<path d="M6.18812 9.68004H3.47639L3 7.04004H5.70807L6.18812 9.68004Z" fill="white"/>
<path opacity="0.3" d="M48.7592 41.2611H46.4144L46.0024 38.9888H48.3473L48.7592 41.2611Z" fill="white"/>
<path opacity="0.3" d="M17.1188 9.68004H14.407L13.9307 7.04004H16.6424L17.1188 9.68004Z" fill="white"/>
<path opacity="0.5" d="M44.1677 41.2611H41.8228L41.4077 38.9888H43.7526L44.1677 41.2611Z" fill="white"/>
<path opacity="0.5" d="M11.6535 9.68004H8.94483L8.46533 7.04004H11.174L11.6535 9.68004Z" fill="white"/>
</g>
</g>
<defs>
<clipPath id="clip0_559_907">
<rect width="52" height="44" fill="white"/>
</clipPath>
<clipPath id="clip1_559_907">
<rect width="52" height="44" fill="white"/>
</clipPath>
</defs>
</svg>
