<svg width="36" height="27" viewBox="0 0 36 27" fill="none" xmlns="http://www.w3.org/2000/svg">
<path d="M28.1792 21H5L7.82077 6H31L28.1792 21Z" stroke="white" stroke-width="2" stroke-miterlimit="10"/>
<path d="M31 6L31.5102 6.86007L31 5V6ZM18.1319 13.6331L17.5369 14.4368L18.0708 14.832L18.6421 14.4932L18.1319 13.6331ZM7.8208 6V5L7.22581 6.80373L7.8208 6ZM30.4899 5.13993L17.6217 12.773L18.6421 14.4932L31.5102 6.86007L30.4899 5.13993ZM18.7269 12.8294L8.41579 5.19627L7.22581 6.80373L17.5369 14.4368L18.7269 12.8294ZM7.8208 7H31V5H7.8208V7Z" fill="white"/>
</svg>
