<svg width="52" height="44" viewBox="0 0 52 44" fill="none" xmlns="http://www.w3.org/2000/svg">
<path d="M47.6045 36.8332H10.0187L5 8H42.5886L47.6045 36.8332Z" stroke="white" stroke-width="1.5" stroke-miterlimit="10"/>
<path d="M5.82422 11.6899H43.1363" stroke="white" stroke-width="1.5" stroke-miterlimit="10"/>
<path d="M14.2017 19.8052H9.84565L9.07642 15.3884H13.4325L14.2017 19.8052Z" fill="#028EA5"/>
<path d="M15.02 26.4027H11.2862L10.6265 22.6194H14.3603L15.02 26.4027Z" stroke="white" stroke-width="1.5" stroke-miterlimit="10"/>
<path d="M16.2217 33.3155H12.4879L11.8311 29.5322H15.5649L16.2217 33.3155Z" stroke="white" stroke-width="1.5" stroke-miterlimit="10"/>
<path d="M15.6628 16.749H27.8356" stroke="white" stroke-width="1.5" stroke-miterlimit="10"/>
<path d="M16.8843 23.7698H29.057" stroke="white" stroke-width="1.5" stroke-miterlimit="10"/>
<path d="M18.0884 30.6853H30.2611" stroke="white" stroke-width="1.5" stroke-miterlimit="10"/>
<path d="M37.2091 34.285C36.9375 34.0787 36.6785 33.8436 36.4397 33.5876L34.9713 33.6242L34.0208 31.8557L34.9738 30.8605C34.9084 30.5758 34.8682 30.2884 34.8531 30.0063L33.606 28.9484L34.056 27.2217L35.5471 27.3419C35.6929 27.1277 35.8614 26.9292 36.0449 26.7542L35.7507 25.2208L37.3373 24.5469L38.4939 25.7119C38.7629 25.6936 39.042 25.7015 39.3211 25.7354L40.1509 24.6252L41.9436 25.3984L42.0869 26.9266C42.3233 27.1146 42.5496 27.3236 42.7583 27.5483L43.2586 27.5352L43.3441 27.9767L42.6275 27.9949L42.5471 27.9035C42.3107 27.6397 42.0517 27.3994 41.7752 27.1878L41.6796 27.1146L41.5438 25.6727L40.342 25.1555L39.5575 26.203L39.4468 26.1873C39.1225 26.1403 38.8032 26.1325 38.4939 26.1586L38.3858 26.169L37.2945 25.0693L36.2335 25.5212L36.5126 26.9657L36.4371 27.0337C36.2184 27.2296 36.0273 27.4568 35.8639 27.7102L35.8085 27.7964L34.4005 27.6841L34.0988 28.8413L35.2755 29.8391L35.2805 29.9515C35.2906 30.278 35.3384 30.6071 35.4213 30.9362L35.449 31.0486L34.5514 31.9863L35.1875 33.1697L36.5729 33.1357L36.6534 33.2271C36.8897 33.4909 37.1512 33.7313 37.4278 33.9429L37.2091 34.285ZM40.005 32.9398C39.6882 32.9398 39.3614 32.8693 39.0395 32.7308C38.4386 32.4722 37.9332 32.0046 37.6139 31.4117C37.2945 30.8187 37.204 30.1761 37.3549 29.5962C37.5058 29.0189 37.8804 28.5748 38.4134 28.3476C38.944 28.1203 39.5675 28.1386 40.1685 28.3972C40.7694 28.6558 41.2748 29.1234 41.5941 29.7164C41.9135 30.3093 42.004 30.9519 41.8531 31.5318C41.7022 32.1117 41.3276 32.5532 40.7946 32.7804C40.5456 32.8875 40.2791 32.9398 40.005 32.9398ZM39.2759 28.6375C39.0521 28.6375 38.8359 28.6793 38.6347 28.7655C38.2022 28.9484 37.8955 29.3089 37.7748 29.7791C37.6516 30.2492 37.727 30.7743 37.986 31.2549C38.245 31.7356 38.6573 32.1169 39.1451 32.3285C39.6329 32.5401 40.1408 32.5532 40.5733 32.3703C41.0058 32.1875 41.31 31.827 41.4332 31.3568C41.5564 30.8866 41.481 30.3616 41.222 29.8809C40.963 29.4003 40.5532 29.0189 40.0629 28.8073C39.7989 28.6924 39.5323 28.6375 39.2759 28.6375Z" fill="white" stroke="white" stroke-width="1.2" stroke-miterlimit="10"/>
<path opacity="0.3" d="M41.7654 18.9331H39.467L39.0596 16.2236H41.3611L41.7654 18.9331Z" fill="white"/>
<path opacity="0.5" d="M38.2867 18.9331H35.6594L35.1943 16.2236H37.8216L38.2867 18.9331Z" fill="white"/>
<path d="M34.4212 18.9331H31.794L31.3289 16.2236H33.9561L34.4212 18.9331Z" fill="white"/>
<path d="M10.6699 17.0613L12.1248 18.5443L14.2453 16.0542" stroke="white" stroke-width="1.5" stroke-miterlimit="10"/>
</svg>
