<svg width="60" height="50" viewBox="0 0 60 50" fill="none" xmlns="http://www.w3.org/2000/svg">
<path d="M16.5898 42.332H9.11096L5.71362 23.5391H13.1971L16.5898 42.332Z" stroke="#00374B" stroke-width="2" stroke-miterlimit="10"/>
<path d="M13.4531 24.9647H16.1617L22.1326 29.479H36.0245L40.7994 35.0106" stroke="#00374B" stroke-width="2" stroke-miterlimit="10"/>
<path d="M27.587 35.0106L50.2933 35.4602L55.0496 42.4406H21.5928L15.7009 37.4086" stroke="#00374B" stroke-width="2" stroke-miterlimit="10"/>
<path d="M31.1145 24.5654L18.8003 15.8683L17.2273 7.17578H24.8224L28.4385 9.73268L31.1285 7.17578H38.719L40.292 15.8683L31.1145 24.5654Z" stroke="#00374B" stroke-width="2" stroke-miterlimit="10"/>
<path d="M12.0847 8.22905H8.77583L8.19409 5H11.4984L12.0847 8.22905Z" fill="#028EA5"/>
<path d="M9.77177 18.0252H6.46286L5.87646 14.7961H9.18538L9.77177 18.0252Z" fill="#E0BA8B"/>
<path d="M50.042 12.8569H46.7378L46.1514 9.62781H49.4603L50.042 12.8569Z" fill="#E0BA8B"/>
<path d="M47.0681 24.5242H43.7592L43.1775 21.2997H46.4818L47.0681 24.5242Z" fill="#028EA5"/>
</svg>
