<svg width="472" height="27" viewBox="0 0 472 27" fill="none" xmlns="http://www.w3.org/2000/svg">
<path d="M6.80599 0.0825195L2.88913 22.2586H0L3.91687 0.0825195H6.80599Z" fill="white"/>
<path d="M18.8652 22.2333L20.7393 11.6169C20.9239 10.5625 20.7902 9.80989 20.332 9.35577C19.8738 8.90164 19.2025 8.67616 18.3147 8.67616H13.8697L11.4737 22.2302H8.72461L11.5215 6.40234H19.1579C20.7329 6.40234 21.9198 6.82154 22.7248 7.66311C23.5298 8.50467 23.7748 9.8099 23.463 11.5851L21.5825 22.2302H18.8652V22.2333Z" fill="white"/>
<path d="M33.6958 19.1561C34.1985 19.6198 35.1245 19.8484 36.4768 19.8484L36.0599 22.2048C33.8199 22.2048 32.2353 21.7952 31.3062 20.9727C30.3771 20.1501 30.0749 18.7687 30.3994 16.8283L31.844 8.65084H27.7903L28.188 6.40561H32.2449L33.2822 0.527344H36.0599L35.0226 6.40561H38.8568L38.4591 8.65084H34.6249L33.1804 16.8283C33.0213 17.9176 33.1963 18.6925 33.6958 19.1561Z" fill="white"/>
<path d="M41.6473 20.6928C40.19 19.6671 39.7541 17.5012 40.3363 14.1921C40.9154 10.9211 42.1436 8.74891 44.0273 7.67869C45.911 6.60847 47.7055 6.07178 49.4078 6.07178C50.3337 6.07178 51.3297 6.24644 52.3988 6.59895C53.4647 6.95145 54.3715 7.72633 55.1129 8.92675C55.8543 10.1272 56.0197 11.8834 55.6124 14.1921L55.4056 15.3576H43.0186C42.9009 17.1678 43.2859 18.3841 44.1673 19.0033C45.0487 19.6226 46.0064 19.9306 47.0437 19.9306H54.0151L53.6079 22.2299H46.7478C44.8037 22.233 43.1046 21.7186 41.6473 20.6928ZM45.806 9.32689C44.7369 9.92711 43.9446 11.1625 43.4291 13.0266H52.9842C53.1115 11.1593 52.7456 9.92711 51.8897 9.32689C51.0337 8.72668 50.0665 8.42499 48.9942 8.42499C47.9378 8.42816 46.8751 8.72668 45.806 9.32689Z" fill="white"/>
<path d="M61.604 22.2586H58.8835L62.8131 0H65.5336L61.604 22.2586Z" fill="white"/>
<path d="M69.1163 20.6928C67.659 19.6671 67.2231 17.5012 67.8053 14.1921C68.3844 10.9211 69.6126 8.74891 71.4963 7.67869C73.3799 6.60847 75.1745 6.07178 76.8768 6.07178C77.8027 6.07178 78.7986 6.24644 79.8678 6.59895C80.9337 6.95145 81.8405 7.72633 82.5819 8.92675C83.3233 10.1272 83.4887 11.8834 83.0814 14.1921L82.8746 15.3576H70.4876C70.3699 17.1678 70.7549 18.3841 71.6363 19.0033C72.5177 19.6226 73.4754 19.9306 74.5127 19.9306H81.4841L81.0769 22.2299H74.2168C72.2727 22.233 70.5735 21.7186 69.1163 20.6928ZM73.2749 9.32689C72.2058 9.92711 71.4136 11.1625 70.8981 13.0266H80.4532C80.5805 11.1593 80.2146 9.92711 79.3587 9.32689C78.5027 8.72668 77.5355 8.42499 76.4632 8.42499C75.4068 8.42816 74.344 8.72668 73.2749 9.32689Z" fill="white"/>
<path d="M88.5001 19.918C87.5996 19.521 86.8964 18.8001 86.3969 17.7553C85.8973 16.7105 85.805 15.2846 86.1264 13.4713C86.4637 11.569 87.0969 10.0955 88.0323 9.05065C88.9678 8.00584 89.951 7.304 90.9883 6.94515C92.0224 6.58629 92.9674 6.40527 93.8201 6.40527H100.263L97.5015 22.0394C97.247 23.4811 96.6011 24.6689 95.567 25.6025C94.5329 26.5362 93.2379 27.003 91.6819 27.003H84.9873L85.3691 24.8403H91.6724C92.5792 24.8403 93.311 24.5768 93.8679 24.0496C94.4247 23.5224 94.7747 22.8428 94.9211 22.0108L95.1852 20.515H91.3256C90.3424 20.5118 89.4005 20.3149 88.5001 19.918ZM90.616 9.59052C89.6392 10.2924 88.9869 11.5881 88.6528 13.4713C88.4364 14.6907 88.4842 15.6625 88.7896 16.3834C89.0983 17.1043 89.5214 17.6029 90.0655 17.8792C90.6096 18.1554 91.1601 18.2952 91.7137 18.2952H95.5733L97.3011 8.51078H93.4415C92.5347 8.52983 91.5897 8.88869 90.616 9.59052Z" fill="white"/>
<path d="M103.862 20.6928C102.405 19.6671 101.969 17.5012 102.551 14.1921C103.13 10.9211 104.358 8.74891 106.242 7.67869C108.126 6.60847 109.92 6.07178 111.623 6.07178C112.549 6.07178 113.545 6.24644 114.614 6.59895C115.68 6.95145 116.586 7.72633 117.328 8.92675C118.069 10.1272 118.235 11.8834 117.827 14.1921L117.62 15.3576H105.233C105.116 17.1678 105.501 18.3841 106.382 19.0033C107.264 19.6226 108.221 19.9306 109.259 19.9306H116.23L115.823 22.2299H108.963C107.019 22.233 105.319 21.7186 103.862 20.6928ZM108.021 9.32689C106.952 9.92711 106.159 11.1625 105.644 13.0266H115.199C115.326 11.1593 114.96 9.92711 114.105 9.32689C113.249 8.72668 112.281 8.42499 111.209 8.42499C110.153 8.42816 109.09 8.72668 108.021 9.32689Z" fill="white"/>
<path d="M130.793 22.2333L132.668 11.6169C132.852 10.5625 132.718 9.80989 132.26 9.35577C131.802 8.90164 131.131 8.67616 130.243 8.67616H125.798L123.402 22.2302H120.653L123.45 6.40234H131.086C132.661 6.40234 133.848 6.82154 134.653 7.66311C135.458 8.50467 135.703 9.8099 135.391 11.5851L133.511 22.2302H130.793V22.2333Z" fill="white"/>
<path d="M142.92 7.91399C144.829 6.90728 146.773 6.40234 148.755 6.40234H153.226L152.825 8.67616H148.243C147.021 8.67616 145.764 9.0509 144.476 9.80037C143.187 10.5498 142.347 12.0329 141.952 14.2496C141.535 16.6155 141.825 18.1589 142.827 18.8798C143.83 19.6007 144.969 19.9595 146.248 19.9595H150.83L150.429 22.2333H145.958C143.941 22.2333 142.166 21.7252 140.632 20.709C139.098 19.6927 138.621 17.5396 139.203 14.2496C139.773 11.0325 141.01 8.92069 142.92 7.91399Z" fill="white"/>
<path d="M156.742 20.6928C155.284 19.6671 154.848 17.5012 155.431 14.1921C156.01 10.9211 157.238 8.74891 159.122 7.67869C161.005 6.60847 162.8 6.07178 164.502 6.07178C165.428 6.07178 166.424 6.24644 167.493 6.59895C168.559 6.95145 169.466 7.72633 170.207 8.92675C170.948 10.1272 171.114 11.8834 170.707 14.1921L170.5 15.3576H158.113C157.995 17.1678 158.38 18.3841 159.262 19.0033C160.143 19.6226 161.101 19.9306 162.138 19.9306H169.109L168.702 22.2299H161.842C159.901 22.233 158.202 21.7186 156.742 20.6928ZM160.903 9.32689C159.834 9.92711 159.042 11.1625 158.527 13.0266H168.082C168.209 11.1593 167.843 9.92711 166.987 9.32689C166.131 8.72668 165.164 8.42499 164.092 8.42499C163.035 8.42816 161.972 8.72668 160.903 9.32689Z" fill="white"/>
<path d="M199.13 13.0554L198.793 14.9672H180.768L181.105 13.0554H199.13ZM200.149 7.2915L199.802 9.26045H181.776L182.123 7.2915H200.149Z" fill="white"/>
<path d="M216.223 0.0825195L212.306 22.2586H209.417L213.334 0.0825195H216.223Z" fill="white"/>
<path d="M228.282 22.2333L230.157 11.6169C230.341 10.5625 230.207 9.80989 229.749 9.35577C229.291 8.90164 228.62 8.67616 227.732 8.67616H223.287L220.891 22.2302H218.142L220.939 6.40234H228.575C230.15 6.40234 231.337 6.82154 232.142 7.66311C232.947 8.50467 233.192 9.8099 232.88 11.5851L231.003 22.2333H228.282Z" fill="white"/>
<path d="M243.116 19.1561C243.619 19.6198 244.545 19.8484 245.897 19.8484L245.48 22.2048C243.24 22.2048 241.656 21.7952 240.727 20.9727C239.798 20.1501 239.495 18.7687 239.82 16.8283L241.264 8.65084H237.208L237.605 6.40561H241.662L242.699 0.527344H245.477L244.44 6.40561H248.274L247.876 8.65084H244.042L242.598 16.8283C242.442 17.9176 242.613 18.6925 243.116 19.1561Z" fill="white"/>
<path d="M251.064 20.6928C249.607 19.6671 249.171 17.5012 249.754 14.1921C250.333 10.9211 251.561 8.74891 253.445 7.67869C255.328 6.60847 257.123 6.07178 258.825 6.07178C259.751 6.07178 260.747 6.24644 261.816 6.59895C262.882 6.95145 263.789 7.72633 264.53 8.92675C265.271 10.1272 265.437 11.8834 265.03 14.1921L264.823 15.3576H252.436C252.318 17.1678 252.703 18.3841 253.585 19.0033C254.466 19.6226 255.424 19.9306 256.461 19.9306H263.432L263.025 22.2299H256.165C254.224 22.233 252.522 21.7186 251.064 20.6928ZM255.223 9.32689C254.154 9.92711 253.362 11.1625 252.846 13.0266H262.401C262.526 11.1593 262.163 9.92711 261.307 9.32689C260.451 8.72668 259.484 8.42499 258.411 8.42499C257.355 8.42816 256.292 8.72668 255.223 9.32689Z" fill="white"/>
<path d="M271.021 22.2586H268.301L272.23 0H274.951L271.021 22.2586Z" fill="white"/>
<path d="M280.325 22.2586H277.604L281.537 0H284.258L280.325 22.2586Z" fill="white"/>
<path d="M292.537 6.43107L289.746 22.2303H287.051L289.842 6.43107H292.537ZM293.67 0.0288086L293.097 3.27122H290.402L290.974 0.0288086H293.67Z" fill="white"/>
<path d="M298.334 19.918C297.434 19.521 296.73 18.8001 296.231 17.7553C295.731 16.7105 295.639 15.2846 295.96 13.4713C296.298 11.569 296.931 10.0955 297.866 9.05065C298.802 8.00584 299.785 7.304 300.822 6.94515C301.856 6.58629 302.801 6.40527 303.654 6.40527H310.097L307.336 22.0394C307.081 23.4811 306.435 24.6689 305.401 25.6025C304.367 26.5362 303.072 27.003 301.516 27.003H294.821L295.203 24.8403H301.506C302.413 24.8403 303.145 24.5768 303.702 24.0496C304.259 23.5224 304.609 22.8428 304.755 22.0108L305.019 20.515H301.16C300.176 20.5118 299.235 20.3149 298.334 19.918ZM300.45 9.59052C299.473 10.2924 298.821 11.5881 298.487 13.4713C298.27 14.6907 298.318 15.6625 298.624 16.3834C298.929 17.1043 299.355 17.6029 299.9 17.8792C300.444 18.1554 300.994 18.2952 301.548 18.2952H305.407L307.135 8.51078H303.275C302.369 8.52983 301.427 8.88869 300.45 9.59052Z" fill="white"/>
<path d="M313.696 20.6928C312.239 19.6671 311.803 17.5012 312.385 14.1921C312.965 10.9211 314.193 8.74891 316.076 7.67869C317.96 6.60847 319.755 6.07178 321.457 6.07178C322.383 6.07178 323.379 6.24644 324.448 6.59895C325.514 6.95145 326.421 7.72633 327.162 8.92675C327.903 10.1272 328.069 11.8834 327.662 14.1921L327.455 15.3576H315.068C314.95 17.1678 315.335 18.3841 316.216 19.0033C317.098 19.6226 318.055 19.9306 319.093 19.9306H326.064L325.657 22.2299H318.797C316.853 22.233 315.154 21.7186 313.696 20.6928ZM317.855 9.32689C316.786 9.92711 315.994 11.1625 315.478 13.0266H325.033C325.161 11.1593 324.795 9.92711 323.939 9.32689C323.083 8.72668 322.116 8.42499 321.043 8.42499C319.987 8.42816 318.924 8.72668 317.855 9.32689Z" fill="white"/>
<path d="M340.627 22.2333L342.502 11.6169C342.686 10.5625 342.552 9.80989 342.094 9.35577C341.636 8.90164 340.965 8.67616 340.077 8.67616H335.632L333.236 22.2302H330.487L333.284 6.40234H340.92C342.495 6.40234 343.682 6.82154 344.487 7.66311C345.292 8.50467 345.537 9.8099 345.225 11.5851L343.345 22.2302H340.627V22.2333Z" fill="white"/>
<path d="M352.753 7.91399C354.662 6.90728 356.607 6.40234 358.589 6.40234H363.059L362.658 8.67616H358.077C356.855 8.67616 355.598 9.0509 354.309 9.80037C353.021 10.5498 352.181 12.0329 351.786 14.2496C351.369 16.6155 351.659 18.1589 352.661 18.8798C353.663 19.6007 354.802 19.9595 356.082 19.9595H360.663L360.263 22.2333H355.792C353.775 22.2333 351.999 21.7252 350.466 20.709C348.932 19.6927 348.455 17.5396 349.037 14.2496C349.606 11.0325 350.844 8.92069 352.753 7.91399Z" fill="white"/>
<path d="M366.579 20.6928C365.121 19.6671 364.685 17.5012 365.268 14.1921C365.847 10.9211 367.075 8.74891 368.959 7.67869C370.842 6.60847 372.637 6.07178 374.339 6.07178C375.265 6.07178 376.261 6.24644 377.33 6.59895C378.396 6.95145 379.303 7.72633 380.044 8.92675C380.786 10.1272 380.951 11.8834 380.544 14.1921L380.337 15.3576H367.95C367.832 17.1678 368.217 18.3841 369.099 19.0033C369.98 19.6226 370.938 19.9306 371.975 19.9306H378.947L378.539 22.2299H371.679C369.735 22.233 368.036 21.7186 366.579 20.6928ZM370.737 9.32689C369.668 9.92711 368.876 11.1625 368.36 13.0266H377.916C378.04 11.1593 377.677 9.92711 376.821 9.32689C375.965 8.72668 374.998 8.42499 373.926 8.42499C372.869 8.42816 371.806 8.72668 370.737 9.32689Z" fill="white"/>
<path d="M400.192 9.73035H408.162L407.815 11.6993H399.845L398.353 20.1531H396.351L397.844 11.6993H389.399L389.746 9.73035H398.19L399.6 1.74658H401.601L400.192 9.73035Z" fill="white"/>
<path d="M422.398 19.1561C422.901 19.6198 423.827 19.8484 425.179 19.8484L424.762 22.2048C422.522 22.2048 420.938 21.7952 420.008 20.9727C419.079 20.1501 418.777 18.7687 419.102 16.8283L420.546 8.65084H416.489L416.887 6.40561H420.944L421.981 0.527344H424.759L423.722 6.40561H427.556L427.158 8.65084H423.324L421.879 16.8283C421.723 17.9176 421.895 18.6925 422.398 19.1561Z" fill="white"/>
<path d="M430.346 20.6928C428.889 19.6671 428.453 17.5012 429.035 14.1921C429.614 10.9211 430.843 8.74891 432.726 7.67869C434.61 6.60847 436.405 6.07178 438.107 6.07178C439.033 6.07178 440.029 6.24644 441.098 6.59895C442.164 6.95145 443.07 7.72633 443.812 8.92675C444.553 10.1272 444.719 11.8834 444.311 14.1921L444.105 15.3576H431.718C431.6 17.1678 431.985 18.3841 432.866 19.0033C433.748 19.6226 434.705 19.9306 435.743 19.9306H442.714L442.307 22.2299H435.447C433.506 22.233 431.804 21.7186 430.346 20.6928ZM434.508 9.32689C433.439 9.92711 432.647 11.1625 432.131 13.0266H441.686C441.814 11.1593 441.448 9.92711 440.592 9.32689C439.736 8.72668 438.769 8.42499 437.696 8.42499C436.64 8.42816 435.577 8.72668 434.508 9.32689Z" fill="white"/>
<path d="M450.303 22.2586H447.583L451.515 0H454.236L450.303 22.2586Z" fill="white"/>
<path d="M457.815 20.6928C456.358 19.6671 455.922 17.5012 456.504 14.1921C457.083 10.9211 458.312 8.74891 460.195 7.67869C462.079 6.60847 463.873 6.07178 465.576 6.07178C466.502 6.07178 467.498 6.24644 468.567 6.59895C469.633 6.95145 470.54 7.72633 471.281 8.92675C472.022 10.1272 472.188 11.8834 471.78 14.1921L471.574 15.3576H459.187C459.069 17.1678 459.454 18.3841 460.335 19.0033C461.217 19.6226 462.174 19.9306 463.212 19.9306H470.183L469.776 22.2299H462.916C460.975 22.233 459.273 21.7186 457.815 20.6928ZM461.977 9.32689C460.908 9.92711 460.116 11.1625 459.6 13.0266H469.155C469.283 11.1593 468.917 9.92711 468.061 9.32689C467.205 8.72668 466.238 8.42499 465.165 8.42499C464.109 8.42816 463.046 8.72668 461.977 9.32689Z" fill="white"/>
</svg>
