<svg width="105" height="48" viewBox="0 0 105 48" fill="none" xmlns="http://www.w3.org/2000/svg">
<g clip-path="url(#clip0_559_1117)">
<path d="M1.30267 37.3916H0V46.1716H1.30267V37.3916Z" fill="#005D7B"/>
<path d="M6.00143 39.8296H3.01736V46.1588H4.27009V40.9292H5.83079C6.13877 40.9292 6.38432 41.0102 6.56328 41.1636C6.73808 41.3171 6.82964 41.5813 6.82964 41.9521V46.1588H8.06988V41.9393C8.06988 41.2233 7.87844 40.6863 7.49554 40.341C7.12098 40.0043 6.61739 39.8296 6.00143 39.8296Z" fill="#005D7B"/>
<path d="M11.8114 37.562H10.5503V39.8295H9.0271V40.9163H10.5503V43.9637C10.5587 44.7437 10.7792 45.3148 11.2079 45.6515C11.6283 45.984 12.2817 46.1502 13.1432 46.1502H13.2514V45.0165H13.1432C12.6604 45.0165 12.3191 44.9355 12.1194 44.7735C11.9279 44.6158 11.8239 44.343 11.8114 43.9637V40.9163H13.2514V39.8295H11.8114V37.562Z" fill="#005D7B"/>
<path d="M18.0251 39.9105C17.5923 39.7741 17.1886 39.7017 16.8348 39.7017C16.1772 39.7017 15.5113 39.9148 14.8579 40.341C14.192 40.7757 13.8507 41.6537 13.8507 42.9494C13.8507 44.2621 14.1795 45.1359 14.8246 45.5535C15.4572 45.9585 16.1564 46.163 16.9056 46.163H19.5941V45.0549H16.8639C16.4977 45.0549 16.1314 44.9398 15.7777 44.7139C15.4572 44.5093 15.2533 44.1044 15.1701 43.512H19.8147V42.9494C19.8147 42.0373 19.6274 41.3298 19.2529 40.8482C18.8824 40.3665 18.4704 40.0512 18.0251 39.9105ZM15.1701 42.3868C15.2491 41.773 15.4447 41.3639 15.7527 41.1636C16.4436 40.7203 17.2427 40.7288 17.9252 41.1636C18.2374 41.3639 18.433 41.773 18.5162 42.3868H15.1701Z" fill="#005D7B"/>
<path d="M22.3409 37.3574H21.1007V46.1715H22.3409V37.3574Z" fill="#005D7B"/>
<path d="M27.8346 39.9105C27.4018 39.7741 26.9981 39.7017 26.6443 39.7017C25.9868 39.7017 25.3209 39.9148 24.6675 40.341C24.0016 40.7757 23.6603 41.6537 23.6603 42.9494C23.6603 44.2621 23.9891 45.1359 24.6342 45.5535C25.2668 45.9585 25.966 46.163 26.7151 46.163H29.4037V45.0549H26.6735C26.3072 45.0549 25.941 44.9398 25.5872 44.7139C25.2668 44.5093 25.0628 44.1044 24.9796 43.512H29.6242V42.9494C29.6242 42.0373 29.437 41.3298 29.0624 40.8482C28.692 40.3665 28.28 40.0512 27.8346 39.9105ZM24.9796 42.3868C25.0587 41.773 25.2543 41.3639 25.5623 41.1636C26.2531 40.7203 27.0522 40.7288 27.7348 41.1636C28.0469 41.3639 28.2425 41.773 28.3257 42.3868H24.9796Z" fill="#005D7B"/>
<path d="M31.7093 40.0427C31.3265 40.1876 30.981 40.4774 30.6855 40.8951C30.39 41.3171 30.2402 41.9138 30.2402 42.6682C30.2402 43.3842 30.3775 43.9638 30.6439 44.3815C30.9103 44.8035 31.2432 45.0976 31.6303 45.2595C32.009 45.4172 32.3919 45.4982 32.7748 45.4982H34.1191V45.9628C34.1191 46.2569 34.0442 46.4913 33.886 46.6746C33.732 46.8536 33.5073 46.9431 33.1951 46.9431H30.7147V48.0001H33.3408C33.9526 48.0001 34.4395 47.8083 34.7891 47.4247C35.1346 47.0454 35.3094 46.5552 35.3094 45.9756V39.8296H32.7789C32.446 39.8296 32.0839 39.902 31.7093 40.0427ZM32.7748 44.4199C32.5833 44.4199 32.3794 44.3688 32.1713 44.2707C31.9674 44.1727 31.7884 43.9937 31.6386 43.738C31.4846 43.478 31.4097 43.1199 31.4097 42.6724C31.4097 41.982 31.5595 41.5089 31.8508 41.2617C32.1505 41.0102 32.4626 40.8781 32.7748 40.8695H34.1191V44.4242H32.7748V44.4199Z" fill="#005D7B"/>
<path d="M40.3827 39.9105C39.9499 39.7741 39.5462 39.7017 39.1924 39.7017C38.5348 39.7017 37.8689 39.9148 37.2155 40.341C36.5496 40.7757 36.2083 41.6537 36.2083 42.9494C36.2083 44.2621 36.5371 45.1359 37.1822 45.5535C37.8148 45.9585 38.514 46.163 39.2632 46.163H41.9517V45.0549H39.2215C38.8553 45.0549 38.4891 44.9398 38.1353 44.7139C37.8148 44.5093 37.6109 44.1044 37.5277 43.512H42.1723V42.9494C42.1723 42.0373 41.985 41.3298 41.6105 40.8482C41.2401 40.3665 40.8239 40.0512 40.3827 39.9105ZM37.5235 42.3868C37.6026 41.773 37.7982 41.3639 38.1062 41.1636C38.797 40.7203 39.5961 40.7288 40.2787 41.1636C40.5908 41.3639 40.7864 41.773 40.8696 42.3868H37.5235Z" fill="#005D7B"/>
<path d="M46.2717 39.8296H43.2918V46.1588H44.5446V40.9292H46.1053C46.4132 40.9292 46.6588 41.0102 46.8378 41.1636C47.0126 41.3171 47.1041 41.5813 47.1041 41.9521V46.1588H48.3444V41.9393C48.3444 41.2233 48.1529 40.6863 47.77 40.341C47.3913 40.0043 46.8877 39.8296 46.2717 39.8296Z" fill="#005D7B"/>
<path d="M50.5086 40.4263C49.826 40.8355 49.4764 41.6879 49.4764 42.9665C49.4764 44.2707 49.8177 45.1445 50.4961 45.5536C51.1536 45.9543 51.882 46.1588 52.6561 46.1588H54.4457V45.0592H52.6145C52.1567 45.0592 51.7197 44.9228 51.316 44.6586C50.9247 44.4028 50.7291 43.836 50.7291 42.9665C50.7291 42.1567 50.9331 41.6069 51.3326 41.3426C51.7488 41.0656 52.1775 40.9292 52.6145 40.9292H54.4457V39.8296H52.6561C51.8945 39.8296 51.1703 40.0299 50.5086 40.4263Z" fill="#005D7B"/>
<path d="M59.4899 39.9105C59.057 39.7741 58.6533 39.7017 58.2996 39.7017C57.642 39.7017 56.9761 39.9148 56.3227 40.341C55.6568 40.7757 55.3155 41.6537 55.3155 42.9494C55.3155 44.2621 55.6443 45.1359 56.2894 45.5535C56.922 45.9585 57.6212 46.163 58.3703 46.163H61.0589V45.0549H58.3287C57.9625 45.0549 57.5962 44.9398 57.2425 44.7139C56.922 44.5093 56.7181 44.1044 56.6348 43.512H61.2795V42.9494C61.2795 42.0373 61.0922 41.3298 60.7176 40.8482C60.3472 40.3665 59.9352 40.0512 59.4899 39.9105ZM56.6348 42.3868C56.7139 41.773 56.9095 41.3639 57.2175 41.1636C57.9084 40.7203 58.7074 40.7288 59.39 41.1636C59.7021 41.3639 59.8977 41.773 59.981 42.3868H56.6348Z" fill="#005D7B"/>
<path d="M67.4307 38.2782C66.6275 38.8834 66.2196 40.0555 66.2113 41.7689C66.2113 42.9751 66.4194 43.9127 66.8314 44.5563C67.2435 45.2042 67.7595 45.6346 68.3672 45.8477C68.9623 46.0523 69.6324 46.1589 70.3649 46.1589H72.5623V44.9825H70.4356C69.5616 44.9825 68.8499 44.7481 68.3214 44.2878C67.797 43.8318 67.5265 42.9836 67.514 41.7689C67.5265 40.5542 67.8011 39.706 68.3214 39.2457C68.8499 38.7854 69.5616 38.551 70.4356 38.551H72.5623V37.3789H70.3649C69.212 37.3789 68.2257 37.6815 67.4307 38.2782Z" fill="#005D7B"/>
<path d="M78.8884 40.4134C78.2142 39.9914 77.4942 39.7783 76.7367 39.7783C75.9751 39.7783 75.2509 39.9914 74.585 40.4134C73.9025 40.8481 73.557 41.7218 73.557 43.0133C73.557 44.326 73.8983 45.204 74.5767 45.6217C75.2343 46.0308 75.9626 46.2354 76.7367 46.2354C77.5067 46.2354 78.2308 46.0266 78.8967 45.6217C79.5793 45.204 79.9247 44.326 79.9247 43.0133C79.9289 41.7218 79.5793 40.8438 78.8884 40.4134ZM78.0477 44.7139C77.2028 45.2637 76.2456 45.2551 75.4174 44.7139C75.0137 44.4539 74.8098 43.8785 74.8098 43.009C74.8098 42.1694 75.0179 41.6025 75.4299 41.3297C75.8544 41.0484 76.2956 40.9035 76.7409 40.9035C77.1779 40.9035 77.6149 41.0484 78.0394 41.3297C78.4514 41.6025 78.6595 42.1651 78.6595 43.009C78.6553 43.8785 78.4514 44.4539 78.0477 44.7139Z" fill="#005D7B"/>
<path d="M81.9182 44.9312C81.706 44.9312 81.527 45.0079 81.3855 45.157C81.244 45.3062 81.1732 45.4852 81.1732 45.6941C81.1732 45.9029 81.244 46.0819 81.3855 46.2354C81.527 46.3888 81.706 46.4698 81.9182 46.4698C82.1305 46.4698 82.3094 46.3931 82.4509 46.2439C82.5925 46.0947 82.6632 45.9114 82.6632 45.6941C82.6632 45.4852 82.5883 45.3062 82.4426 45.157C82.297 45.0079 82.1222 44.9312 81.9182 44.9312Z" fill="#005D7B"/>
<path d="M87.4868 44.9229H86.7876C86.7169 44.9229 86.6545 44.9484 86.6045 44.9996C86.5546 45.0507 86.5296 45.1146 86.5296 45.1871V45.9244C86.5296 45.9884 86.5546 46.0523 86.6045 46.0992C86.6545 46.1503 86.7169 46.1759 86.7876 46.1759H86.8709C86.7668 46.3038 86.617 46.4231 86.4214 46.5339L86.2965 46.6064L86.5421 46.8579L86.6004 46.8451C86.9333 46.7769 87.2579 46.5893 87.5534 46.2995C87.595 46.2697 87.6325 46.2185 87.6783 46.1418C87.7282 46.0566 87.7532 45.9926 87.7532 45.933V45.1956C87.7532 45.1232 87.7241 45.0592 87.6741 45.0038C87.62 44.9484 87.5576 44.9229 87.4868 44.9229Z" fill="#005D7B"/>
<path d="M90.9037 37.3574H89.6635V46.1715H90.9037V37.3574Z" fill="#005D7B"/>
<path d="M94.9615 37.562H93.7005V39.8295H92.1772V40.9163H93.7005V43.9637C93.7088 44.7437 93.9294 45.3148 94.3581 45.6515C94.7784 45.984 95.4318 46.1502 96.2933 46.1502H96.4016V45.0165H96.2933C95.8106 45.0165 95.4693 44.9355 95.2695 44.7735C95.0781 44.6158 94.974 44.343 94.9615 43.9637V40.9163H96.4016V39.8295H94.9615V37.562Z" fill="#005D7B"/>
<path d="M101.125 39.8296H99.864C97.8705 39.8296 96.8633 40.8909 96.8633 42.9921C96.8633 44.2835 97.1879 45.1445 97.8288 45.5579C98.4531 45.9586 99.1398 46.1631 99.8682 46.1631H102.357V37.3789H101.125V39.8296ZM99.8224 40.9293H101.125V45.0507H99.8224C99.4145 45.0507 99.0233 44.9143 98.6529 44.6416C98.295 44.3816 98.1118 43.8232 98.1118 42.9879C98.1118 42.1397 98.2908 41.5771 98.6404 41.3256C99.0066 41.0614 99.402 40.9293 99.8224 40.9293Z" fill="#005D7B"/>
<path d="M104.779 45.157C104.634 45.0079 104.455 44.9312 104.255 44.9312C104.043 44.9312 103.864 45.0079 103.722 45.157C103.581 45.3062 103.51 45.4852 103.51 45.6941C103.51 45.9029 103.581 46.0819 103.722 46.2354C103.864 46.3888 104.043 46.4698 104.255 46.4698C104.467 46.4698 104.646 46.3931 104.788 46.2439C104.929 46.0947 105 45.9114 105 45.6941C105 45.4895 104.925 45.3062 104.779 45.157Z" fill="#005D7B"/>
<path d="M92.6559 20.5305H96.0561V26.3142H98.7821V20.5305H102.182V23.2241C102.182 23.4884 102.107 23.6844 101.958 23.8166C101.808 23.9487 101.625 24.0126 101.412 24.0126H100.418L100.901 26.3781H102.182C102.932 26.3355 103.572 26.0925 104.109 25.6535C104.642 25.2145 104.913 24.5582 104.913 23.6802V9.48732C104.913 8.67752 104.646 8.06377 104.109 7.64609C103.572 7.2284 102.932 7.01103 102.182 6.98972H100.643C102.053 5.98386 103.19 4.81177 104.043 3.47347V1.14209H90.1463V3.47347H101.217C100.126 4.87571 98.7905 6.04779 97.2048 6.98972H95.9854L93.9003 4.42818H91.1409L93.1927 6.98972H89.9215V26.3781H92.6475V20.5305H92.6559ZM98.7863 9.3211H100.905C101.267 9.3211 101.575 9.44044 101.82 9.68338C102.066 9.92632 102.191 10.3184 102.191 10.8682V12.5433H98.7905V9.3211H98.7863ZM98.7863 14.9087H102.187V18.1607H98.7863V14.9087ZM92.6559 9.3211H96.0561V12.5433H92.6559V9.3211ZM92.6559 14.9087H96.0561V18.1607H92.6559V14.9087Z" fill="#005D7B"/>
<path d="M91.1826 27.2346C89.9839 27.2346 88.7437 26.6976 87.4618 25.6235C88.211 22.7082 88.5856 20.2447 88.5856 18.2288V17.0439H86.9499C88.0403 13.4296 88.5856 10.395 88.5856 7.94V6.85742H82.9379V9.2229H85.8262C85.7388 10.5612 85.5224 12.0061 85.1686 13.5617C84.8149 15.1174 84.4153 16.541 83.9659 17.8324H85.9219V18.2288C85.9219 19.8271 85.6847 21.6853 85.2144 23.7993C84.7441 25.9134 84.1656 27.9464 83.4831 29.8942H86.2091C86.4214 29.3017 86.6378 28.59 86.85 27.7589C88.4981 28.9863 89.909 29.6001 91.0868 29.6001H99.3107L98.4908 27.2772L91.1826 27.2346Z" fill="#005D7B"/>
<path d="M88.3275 4.5901L87.1081 0.41748H84.5069L85.7596 4.5901H88.3275Z" fill="#005D7B"/>
<path d="M99.2399 27.2432L100.056 29.5788C100.056 29.5788 102.016 29.5703 102.099 29.566L101.325 27.2432H99.2399Z" fill="#007691"/>
<path d="M102.058 27.2432L102.873 29.5788H104.143H104.663C104.746 29.5788 104.829 29.5703 104.917 29.566L104.143 27.2432H102.058Z" fill="#028EA5"/>
<path d="M75.0511 6.77236C75.3466 7.06218 75.4923 7.53528 75.4923 8.18312V12.0531H78.0518V6.54647C78.0518 5.71535 77.7938 5.1144 77.2694 4.71376C76.7325 4.30885 76.0791 4.09149 75.3216 4.06591H67.9801V2.47188H77.5732V0.34082H55.9273V2.47188H65.4538V4.06591H55.3821V12.0531H57.9749V6.37598H65.4538V12.4751H67.9759V6.37598H73.9607C74.3852 6.34615 74.7598 6.48254 75.0511 6.77236Z" fill="#005D7B"/>
<path d="M64.1512 7.60791H59.1819V9.38948H64.1512V7.60791Z" fill="#005D7B"/>
<path d="M64.1512 10.6724H59.1819V12.4539H64.1512V10.6724Z" fill="#005D7B"/>
<path d="M74.2937 7.60791H69.2869V9.38948H74.2937V7.60791Z" fill="#005D7B"/>
<path d="M74.2937 10.6724H69.2869V12.4539H74.2937V10.6724Z" fill="#005D7B"/>
<path d="M68.7625 27.2391C68.4712 27.2391 68.234 26.9961 68.234 26.6978V24.5497H77.0197V16.3493C77.0197 15.7399 76.7866 15.2028 76.3246 14.7553C75.8627 14.3078 75.1427 14.0776 74.1854 14.0776H56.9636V24.5539H65.6411V26.702C65.6411 28.4623 67.0395 29.8944 68.7584 29.8944H72.3292L71.5135 27.2433L68.7625 27.2391ZM68.4129 16.2002H73.582C74.0689 16.2002 74.4684 16.6051 74.4684 17.108V18.3483H68.4171V16.2002H68.4129ZM68.4129 20.1341H74.4643V22.278H68.4129V20.1341ZM65.5662 22.278H59.5148V20.1341H65.5662V22.278ZM65.5662 18.344H59.5148V16.2002H65.5662V18.344Z" fill="#005D7B"/>
<path d="M72.2543 27.2432L73.0701 29.8942H74.3394H74.8597C74.9429 29.8942 75.0261 29.8857 75.1135 29.8814L74.3394 27.2432H72.2543Z" fill="#007691"/>
<path d="M75.0719 27.2432L75.8877 29.8942H77.157H77.6773C77.7605 29.8942 77.8437 29.8857 77.9311 29.8814L77.157 27.2432H75.0719Z" fill="#028EA5"/>
<path d="M34.5602 21.2851C35.9919 18.5616 37.0615 15.885 37.769 13.2468H35.2012C34.7933 14.5979 34.3022 15.9703 33.7237 17.364H31.0601C31.7426 16.4988 32.4751 15.2201 33.2576 13.5323C34.04 11.8445 34.7725 9.82854 35.455 7.48438H32.8539C32.1921 9.67937 31.443 11.6272 30.6064 13.3235C29.7741 15.0241 28.9916 16.3666 28.2633 17.3597V19.6399H32.6915C31.8342 21.3917 30.9644 22.99 30.0779 24.4348C29.1914 25.8797 28.5879 26.8259 28.2633 27.2691V29.5494H32.6915C34.1024 29.5494 35.2927 29.3917 36.2541 29.0763L36.4456 29.8989H39.0759L37.2155 21.2894H34.5602V21.2851ZM32.6957 27.2691H31.0601C31.3389 26.8685 31.8092 26.1354 32.471 25.0699C33.1327 24.0044 33.8277 22.7641 34.5561 21.3491L35.7755 26.8557C34.7933 27.1327 33.7653 27.2691 32.6957 27.2691Z" fill="#005D7B"/>
<path d="M48.7103 13.2422H48.7023V13.2763C48.7023 13.2635 48.7063 13.255 48.7103 13.2422Z" fill="#005D7B"/>
<path d="M33.6446 6.39729H36.3706V4.59015H42.4054V6.39729H45.1647V4.59015H50.4586V2.25877H45.1647V0.0893555H42.4054V2.25877H36.3706V0.0893555H33.6446V2.25877H28.3174V4.59015H33.6446V6.39729Z" fill="#005D7B"/>
<path d="M49.0103 11.9423V11.9082H46.4507C46.3092 12.4069 46.1469 12.9098 45.9804 13.4127H48.5691C48.7231 12.9311 48.8729 12.441 49.0103 11.9423Z" fill="#028EA5"/>
<path d="M48.644 21.2851H46.0137L47.1707 26.7321C46.1885 27.0901 45.019 27.2691 43.6747 27.2691H42.035C43.0172 25.8115 44.1617 23.8808 45.4685 21.4769C46.2926 19.9553 47.0292 18.2931 47.6743 16.503H45.0398C44.9275 16.7886 44.8193 17.0741 44.7027 17.364H42.0058C42.6884 16.4988 43.4334 15.2201 44.2366 13.5323C45.0398 11.8445 45.7598 9.82854 46.4008 7.48438H43.7996C43.1379 9.67937 42.397 11.6272 41.5855 13.3235C40.7739 15.0241 39.9832 16.3666 39.209 17.3597V19.6399H43.6706C43.0505 20.8632 42.3804 22.1077 41.6646 23.3736C40.9487 24.6394 40.3744 25.5941 39.9457 26.2377C39.517 26.8813 39.2923 27.2265 39.2715 27.2649H39.209V29.5451H43.6706C45.2979 29.5451 46.6213 29.3448 47.6493 28.9442L47.8741 29.8946H50.5044L48.644 21.2851Z" fill="#005D7B"/>
<path d="M48.465 14.0479H45.8764C45.6849 14.6275 45.4685 15.2114 45.2396 15.7996H47.8741C48.078 15.2285 48.2778 14.6445 48.465 14.0479Z" fill="#007691"/>
<path d="M8.02409 1.35514C7.4997 0.950237 6.85461 0.737131 6.08466 0.71582H1.39839V19.5459C1.39839 21.5405 1.26937 23.45 1.01133 25.2784C0.753295 27.1069 0.445316 28.6455 0.079071 29.8943H2.8384C3.20048 28.7989 3.51262 27.3626 3.77066 25.5896C4.02869 23.8165 4.15771 21.8645 4.15771 19.7419V19.0515H6.08466V26.7403C6.08466 27.2646 5.85992 27.5288 5.41044 27.5288H5.31471H4.44904L4.93182 29.8943H6.08882C6.85877 29.8517 7.50386 29.5917 8.02826 29.1229C8.55265 28.6498 8.81485 27.9252 8.81485 26.9364V15.4031V3.20916C8.81069 2.37805 8.54849 1.76004 8.02409 1.35514ZM6.08466 16.686H4.15771V11.1964H6.08466V16.686ZM6.08466 8.8309H4.15771V3.20916H5.18569C5.42292 3.23047 5.63102 3.32424 5.80998 3.49046C5.9931 3.65668 6.08466 3.89962 6.08466 4.23207V8.8309Z" fill="#005D7B"/>
<path d="M13.8507 3.27733L12.6313 0.353516H9.83868L11.0914 3.27733H13.8507Z" fill="#005D7B"/>
<path d="M22.5157 0.353516H19.7523L18.5037 3.27733H21.2963L22.5157 0.353516Z" fill="#005D7B"/>
<path d="M20.7428 22.2738H17.8045V20.9909H21.3379V19.8061H17.8045V18.6766H21.3379V17.4917H17.8045V16.2131H18.3122C18.3664 16.2088 18.4288 16.2088 18.4912 16.2131H21.546V16.0938C21.5668 15.902 21.5335 15.6889 21.4586 15.4459L21.4004 15.2584H23.3939C22.8653 14.7342 22.3035 14.1034 21.725 13.3873C21.0466 12.5519 20.4348 11.6697 19.9021 10.7746L19.7731 10.5615H22.6406V8.47736H16.6059L16.685 8.2813C16.9555 7.5951 17.1386 6.90037 17.2218 6.21417L17.2385 6.09057H22.3909V4.04049H17.3717V0H14.887V4.04049H9.97601V6.09057H14.7913L14.7538 6.26105C14.604 6.98988 14.3709 7.70591 14.0713 8.39212L14.0338 8.47736H9.68884V10.5615H12.9517L12.8102 10.7789C11.7823 12.39 10.5545 13.8988 9.16028 15.2584H10.7792L10.5337 24.1662H19.9936C20.4764 24.1662 20.8676 24.5669 20.8676 25.0613V26.9664C20.8676 27.529 20.4223 27.9893 19.8688 27.9893H19.4568H12.6812L13.0475 29.984H19.9687C20.8635 29.984 21.7333 29.8775 22.4367 29.2467C22.9278 28.8034 23.1109 27.8828 23.1109 26.9451V24.2259C23.0984 22.781 21.829 22.2738 20.7428 22.2738ZM13.3305 13.8945C14.1545 12.9398 14.9286 11.8444 15.6237 10.6297L15.6653 10.5615H17.1719L17.2093 10.634C17.8877 11.87 18.6077 12.9696 19.3444 13.8988L19.5275 14.1289H13.1265L13.3305 13.8945ZM16.2022 22.2738H13.2306V20.9909H16.2022V22.2738ZM16.2022 19.8061H13.2306V18.6766H16.2022V19.8061ZM16.2022 17.496H13.2306V16.2174H16.2022V17.496Z" fill="#005D7B"/>
<path d="M9.75543 29.5153L10.696 25.0742H12.8352L11.4743 29.5153H9.75543Z" fill="#005D7B"/>
<path d="M13.2764 27.2948L13.3347 25.0742H15.0827L14.7206 27.2948H13.2764Z" fill="#005D7B"/>
<path d="M15.7486 27.2948L15.7194 25.0742H17.5215L17.1636 27.2948H15.7486Z" fill="#007691"/>
<path d="M19.6773 25.0742L19.4817 27.2948H18.2332L18.0376 25.0742H19.6773Z" fill="#028EA5"/>
</g>
<defs>
<clipPath id="clip0_559_1117">
<rect width="105" height="48" fill="white"/>
</clipPath>
</defs>
</svg>
